<svg width="59" height="30" viewBox="0 0 59 30" fill="none" xmlns="http://www.w3.org/2000/svg">
<path d="M15.9726 23.8579C17.554 23.8579 18.8359 22.5697 18.8359 20.9807C18.8359 19.3917 17.554 18.1035 15.9726 18.1035C14.3913 18.1035 13.1093 19.3917 13.1093 20.9807C13.1093 22.5697 14.3913 23.8579 15.9726 23.8579Z" fill="#E4E4E4"/>
<path opacity="0.2" d="M13.8583 19.0566C13.5912 19.6844 13.555 20.3872 13.7561 21.0393C13.9572 21.6915 14.3825 22.2505 14.956 22.6166C15.5295 22.9826 16.2139 23.1318 16.8869 23.0375C17.5598 22.9432 18.1774 22.6115 18.6294 22.1018C18.4662 22.4853 18.222 22.8286 17.9137 23.1079C17.6054 23.3872 17.2404 23.5958 16.8439 23.7193C16.4474 23.8428 16.0289 23.8781 15.6174 23.8229C15.206 23.7678 14.8114 23.6233 14.461 23.3997C14.1106 23.1761 13.8128 22.8786 13.5882 22.5278C13.3636 22.177 13.2175 21.7813 13.1602 21.3682C13.1029 20.9551 13.1356 20.5344 13.2561 20.1353C13.3767 19.7361 13.5821 19.3681 13.8583 19.0566Z" fill="black"/>
<path d="M15.9815 20.9805H15.9893L16.1309 29.1377H15.832L15.9815 20.9805Z" fill="#3F3D56"/>
<path d="M10.1828 18.4915C13.3711 18.4915 15.9557 15.8944 15.9557 12.6906C15.9557 9.48686 13.3711 6.88971 10.1828 6.88971C6.99451 6.88971 4.40988 9.48686 4.40988 12.6906C4.40988 15.8944 6.99451 18.4915 10.1828 18.4915Z" fill="#E4E4E4"/>
<path d="M5.91978 8.81543C5.3813 10.0811 5.30825 11.498 5.71369 12.8129C6.11913 14.1277 6.97664 15.2549 8.13299 15.9929C9.28934 16.7309 10.6692 17.0318 12.0259 16.8416C13.3827 16.6515 14.6279 15.9827 15.5392 14.9549C15.2102 15.7282 14.7179 16.4204 14.0963 16.9836C13.4747 17.5467 12.7387 17.9673 11.9393 18.2162C11.1399 18.4651 10.2961 18.5364 9.46656 18.4252C8.63699 18.3139 7.84141 18.0227 7.13495 17.5718C6.42848 17.1209 5.82802 16.5211 5.37516 15.8139C4.92231 15.1066 4.62789 14.3089 4.5123 13.476C4.39671 12.6431 4.46272 11.7949 4.70575 10.9901C4.94878 10.1854 5.36303 9.44333 5.91978 8.81543Z" fill="#F1A5C2"/>
<path d="M10.1997 12.6895H10.2156L10.5011 29.136H9.89838L10.1997 12.6895Z" fill="#3F3D56"/>
<path d="M48.2457 20.626H21.7851V28.508H48.2457V20.626Z" fill="#F0F0F0"/>
<path d="M36.5618 22.2529H33.4765V28.506H36.5618V22.2529Z" fill="#CACACA"/>
<path d="M46.6994 11.3232H23.3242V18.5747H46.6994V11.3232Z" fill="#F0F0F0"/>
<path d="M49.0768 11.7706H20.9618C20.9149 11.7706 20.869 11.7564 20.8301 11.7301C20.7912 11.7037 20.7611 11.6662 20.7435 11.6224C20.726 11.5787 20.7219 11.5306 20.7317 11.4845C20.7416 11.4384 20.7649 11.3963 20.7987 11.3636L28.4826 3.94206V0.709387C28.4827 0.646695 28.5075 0.586591 28.5516 0.542261C28.5957 0.497931 28.6555 0.472995 28.7179 0.472925H30.2344C30.2968 0.472993 30.3566 0.497929 30.4007 0.542259C30.4449 0.586589 30.4697 0.646694 30.4697 0.709387V2.02276L31.0501 1.46219C31.9998 0.544865 33.2599 0.0227339 34.577 0.000725069C35.8942 -0.0212838 37.1708 0.45846 38.1504 1.34354L49.2341 11.3582C49.2695 11.3902 49.2944 11.4322 49.3055 11.4788C49.3167 11.5253 49.3135 11.5741 49.2965 11.6187C49.2794 11.6634 49.2493 11.7018 49.2101 11.7289C49.1709 11.756 49.1244 11.7705 49.0768 11.7706V11.7706Z" fill="#3F3D56"/>
<path d="M29.502 13.1631C29.6977 13.1631 29.8915 13.2018 30.0724 13.2771C30.2532 13.3523 30.4175 13.4627 30.5559 13.6017C30.6943 13.7408 30.804 13.9059 30.8789 14.0876C30.9538 14.2693 30.9924 14.464 30.9924 14.6607V16.6837H28.0117V14.6607C28.0117 14.464 28.0502 14.2693 28.1251 14.0876C28.2 13.9059 28.3098 13.7408 28.4482 13.6017C28.5866 13.4627 28.7509 13.3523 28.9317 13.2771C29.1125 13.2018 29.3063 13.1631 29.502 13.1631Z" fill="white"/>
<path d="M35.0177 13.1895C35.4129 13.1895 35.792 13.3472 36.0715 13.6281C36.351 13.9089 36.508 14.2899 36.508 14.687V16.7101H33.5273V14.687C33.5273 14.2899 33.6843 13.9089 33.9638 13.6281C34.2433 13.3472 34.6224 13.1895 35.0177 13.1895Z" fill="white"/>
<path d="M40.5294 13.2158C40.9246 13.2158 41.3037 13.3736 41.5832 13.6545C41.8627 13.9353 42.0197 14.3162 42.0197 14.7134V16.7365H39.039V14.7134C39.039 14.3162 39.196 13.9353 39.4755 13.6545C39.755 13.3736 40.1341 13.2158 40.5294 13.2158Z" fill="white"/>
<path d="M42.7286 22.1748C43.1239 22.1748 43.5029 22.3326 43.7824 22.6134C44.0619 22.8943 44.219 23.2752 44.219 23.6724V25.6955H41.2382V23.6724C41.2382 23.2752 41.3952 22.8943 41.6747 22.6134C41.9542 22.3326 42.3333 22.1748 42.7286 22.1748Z" fill="white"/>
<path d="M27.9825 22.1748C28.3778 22.1748 28.7568 22.3326 29.0363 22.6134C29.3158 22.8943 29.4729 23.2752 29.4729 23.6724V25.6955H26.4921V23.6724C26.4921 23.4757 26.5307 23.281 26.6056 23.0993C26.6805 22.9176 26.7903 22.7525 26.9286 22.6134C27.067 22.4744 27.2313 22.3641 27.4122 22.2888C27.593 22.2135 27.7868 22.1748 27.9825 22.1748Z" fill="white"/>
<path d="M52.1096 20.7494L47.1459 18.5424C47.1193 18.5305 47.0905 18.5244 47.0613 18.5244H23.4051C23.3781 18.5244 23.3513 18.5297 23.3263 18.5399L17.9233 20.7469C17.8784 20.7652 17.8412 20.7987 17.8181 20.8416C17.795 20.8845 17.7875 20.9341 17.7968 20.9819C17.8061 21.0297 17.8317 21.0728 17.8691 21.1038C17.9066 21.1348 17.9536 21.1518 18.0021 21.1518H19.4039V28.4033H19.247V29.1389H50.7801V28.4033H50.5186V21.1518H52.025C52.073 21.1518 52.1195 21.1352 52.1567 21.1048C52.194 21.0745 52.2197 21.0322 52.2297 20.985C52.2396 20.9379 52.2331 20.8887 52.2112 20.8458C52.1894 20.8029 52.1535 20.7689 52.1096 20.7494ZM50.1003 28.4033H19.8222V21.1518H50.1003V28.4033Z" fill="#CACACA"/>
<path d="M31.3564 16.3955H27.539V17.0261H31.3564V16.3955Z" fill="#CACACA"/>
<path d="M36.9463 16.3955H33.1288V17.0261H36.9463V16.3955Z" fill="#CACACA"/>
<path d="M42.5439 16.3955H38.7265V17.0261H42.5439V16.3955Z" fill="#CACACA"/>
<path d="M44.6377 25.4854H40.8203V26.1159H44.6377V25.4854Z" fill="#F1A5C2"/>
<path d="M29.8369 25.4854H26.0195V26.1159H29.8369V25.4854Z" fill="#3D79EF"/>
<path d="M58.2601 29.168H0.138239C0.121244 29.168 0.104944 29.1612 0.0929267 29.1492C0.0809091 29.1371 0.0741577 29.1207 0.0741577 29.1036C0.0741577 29.0866 0.0809091 29.0702 0.0929267 29.0581C0.104944 29.046 0.121244 29.0392 0.138239 29.0392H58.2601C58.2771 29.0392 58.2934 29.046 58.3054 29.0581C58.3174 29.0702 58.3242 29.0866 58.3242 29.1036C58.3242 29.1207 58.3174 29.1371 58.3054 29.1492C58.2934 29.1612 58.2771 29.168 58.2601 29.168Z" fill="#3F3D56"/>
<path d="M43.6448 11.2146C43.6448 11.2558 43.6442 11.2977 43.6435 11.3389C43.6429 11.3884 43.6416 11.4374 43.6397 11.487C43.6378 11.5301 43.6358 11.5726 43.6333 11.6151C43.6256 11.7574 43.6134 11.8991 43.5967 12.0414C43.5929 12.0774 43.5884 12.1129 43.5833 12.1489C43.5794 12.1766 43.5756 12.2049 43.5711 12.2333C43.5666 12.2648 43.5621 12.2964 43.557 12.3279C43.5467 12.3949 43.5352 12.4619 43.5224 12.5288C43.516 12.5623 43.5096 12.5958 43.5025 12.6293C43.4891 12.6956 43.4743 12.7626 43.459 12.8289C43.4577 12.8341 43.4564 12.8398 43.4551 12.845C43.4474 12.8778 43.4397 12.91 43.4314 12.9429C43.4288 12.9525 43.4269 12.9615 43.4237 12.9712C43.4179 12.9957 43.4115 13.0201 43.4051 13.0446C43.3962 13.0787 43.3872 13.1122 43.3776 13.1463C43.3622 13.1992 43.3468 13.2513 43.3308 13.3041C43.3288 13.3096 43.3271 13.3152 43.3257 13.3209C43.2949 13.4207 43.2622 13.5192 43.2263 13.6171C43.2078 13.6686 43.1879 13.7207 43.168 13.7722C43.1482 13.8237 43.1277 13.8753 43.1065 13.9261C43.086 13.9757 43.0649 14.0253 43.0437 14.0742C43.0386 14.0858 43.0335 14.0974 43.0277 14.109C43.0053 14.1599 42.9822 14.2095 42.9585 14.259C42.9578 14.2597 42.9578 14.261 42.9572 14.2616C42.9386 14.3015 42.9187 14.3415 42.8989 14.3807C42.8989 14.3819 42.8984 14.3831 42.8976 14.384C42.8784 14.4226 42.8585 14.4612 42.838 14.4992L42.8053 14.5617L42.8015 14.5688C42.7605 14.6454 42.7182 14.7214 42.6733 14.7967C42.6637 14.8135 42.6541 14.8302 42.6445 14.8463C42.6349 14.863 42.6246 14.8798 42.6144 14.8959C42.608 14.9075 42.6009 14.9191 42.5932 14.9306C42.5798 14.9525 42.5663 14.9751 42.5522 14.997C42.5496 15.0015 42.5464 15.006 42.5439 15.0105C42.5195 15.0485 42.4952 15.0858 42.4708 15.1238C42.4407 15.1695 42.4099 15.2146 42.3786 15.2597L41.6826 16.3788L41.6525 16.3537L41.6442 16.346H41.6435L41.616 16.3228L41.5404 16.2584C41.5173 16.2809 41.4949 16.3035 41.4718 16.3254C41.4628 16.3344 41.4532 16.3428 41.4442 16.3518C41.4372 16.3582 41.4308 16.3647 41.4237 16.3711C40.2206 17.5517 38.6202 18.2354 36.9393 18.2868H36.9374C35.665 18.3219 34.4054 18.0231 33.2828 17.42C33.2578 17.4072 33.2335 17.3943 33.2091 17.3795C33.063 17.2996 32.9201 17.2153 32.7798 17.1251C32.7792 17.1245 32.7785 17.1245 32.7779 17.1238C32.6151 17.0079 32.4562 16.8843 32.3011 16.7529C31.4691 16.0483 30.811 15.1595 30.3781 14.1564C29.9453 13.1533 29.7496 12.063 29.8064 10.9712C29.8083 10.928 29.8109 10.8855 29.8141 10.8424C29.8244 10.6866 29.8402 10.5314 29.8615 10.3768C29.8673 10.3337 29.8737 10.2905 29.8801 10.248H43.5794C43.6063 10.4451 43.6249 10.6432 43.6352 10.8424C43.6416 10.9667 43.6448 11.0903 43.6448 11.2146Z" fill="#F0F0F0"/>
<path d="M43.5817 10.2485C43.335 8.60037 42.5081 7.09592 41.2511 6.00859C39.9941 4.92126 38.3906 4.32324 36.732 4.32324C35.0734 4.32324 33.4699 4.92126 32.2129 6.00859C30.956 7.09592 30.129 8.60037 29.8824 10.2485C29.876 10.291 29.8695 10.3341 29.8638 10.3772C29.8426 10.5318 29.8268 10.687 29.8163 10.8428H43.6374C43.6272 10.6438 43.6086 10.4457 43.5817 10.2485Z" fill="#3D79EF"/>
<path d="M37.176 17.4219H33.207V14.2315C33.2802 12.7735 34.5204 12.6558 35.6857 12.734C35.8814 12.734 36.0752 12.7727 36.256 12.848C36.4368 12.9232 36.6011 13.0335 36.7395 13.1726C36.8779 13.3117 36.9877 13.4767 37.0626 13.6584C37.1375 13.8401 37.176 14.0349 37.176 14.2315V17.4219Z" fill="#3D79EF"/>
<path d="M33.2091 15.1534V15.154C33.2091 15.1547 33.2098 15.1547 33.2104 15.1547L33.2091 15.1534ZM31.6129 10.25C31.6103 10.2661 31.6071 10.2822 31.6045 10.2983C31.6071 10.2822 31.6103 10.2661 31.6135 10.25H31.6129ZM31.5334 10.8443C31.5315 10.8688 31.5296 10.8932 31.5283 10.9177C31.5296 10.8932 31.5315 10.8688 31.5341 10.8443C31.5339 10.8398 31.5342 10.8353 31.5347 10.8308C31.5341 10.8353 31.5341 10.8398 31.5334 10.8443ZM33.2091 15.154C33.2091 15.1547 33.2098 15.1547 33.2104 15.1547L33.2091 15.1534V15.154ZM31.6129 10.25C31.6103 10.2661 31.6071 10.2822 31.6045 10.2983C31.6071 10.2822 31.6103 10.2661 31.6135 10.25H31.6129ZM31.5283 10.9177C31.5296 10.8932 31.5315 10.8688 31.5341 10.8443C31.5339 10.8398 31.5342 10.8353 31.5347 10.8308C31.5341 10.8353 31.5341 10.8398 31.5334 10.8443C31.5315 10.8688 31.5296 10.8932 31.5283 10.9177ZM51.3256 22.7633C51.3131 22.75 51.2999 22.7375 51.2859 22.7259L51.2852 22.7253L48.1119 20.0343L48.0299 19.9648L47.7178 19.7001L47.6396 19.6338L47.1949 19.2565L47.0732 19.1534L46.8213 18.9397L46.6925 18.8302L45.4775 17.8006L44.781 17.2101L44.6874 17.1309L42.6349 15.3904C42.6663 15.3453 42.697 15.3002 42.7271 15.2545C42.7515 15.2165 42.7758 15.1792 42.8002 15.1412C42.8028 15.1367 42.806 15.1322 42.8085 15.1276C42.8226 15.1058 42.8361 15.0832 42.8495 15.0613C42.8572 15.0497 42.8643 15.0381 42.8707 15.0266C42.881 15.0105 42.8912 14.9937 42.9008 14.977C42.9104 14.9609 42.92 14.9441 42.9296 14.9274C42.9745 14.8521 43.0168 14.7761 43.0578 14.6994L43.0616 14.6924L43.0943 14.6299C43.1148 14.5919 43.1347 14.5533 43.1539 14.5146C43.1547 14.5138 43.1552 14.5126 43.1552 14.5114C43.1751 14.4721 43.1949 14.4322 43.2135 14.3923C43.2142 14.3917 43.2142 14.3904 43.2148 14.3897C43.2385 14.3401 43.2616 14.2906 43.284 14.2397C43.2898 14.2281 43.2949 14.2165 43.3 14.2049C43.3212 14.156 43.3423 14.1064 43.3628 14.0568C43.384 14.006 43.4045 13.9544 43.4244 13.9029C43.4442 13.8514 43.4641 13.7993 43.4827 13.7477C43.5179 13.6492 43.551 13.5505 43.582 13.4515C43.5834 13.4459 43.5851 13.4403 43.5871 13.4348C43.6031 13.382 43.6185 13.3298 43.6339 13.277C43.6435 13.2429 43.6525 13.2094 43.6615 13.1753C43.6679 13.1508 43.6743 13.1264 43.68 13.1019C43.6832 13.0922 43.6852 13.0832 43.6877 13.0736C43.6961 13.0407 43.7037 13.0085 43.7114 12.9757C43.7127 12.9705 43.714 12.9647 43.7153 12.9596C43.7307 12.8933 43.7454 12.8263 43.7589 12.76C43.7659 12.7265 43.7723 12.693 43.7787 12.6595C43.7909 12.5925 43.8031 12.5256 43.8133 12.4586C43.8185 12.4271 43.8229 12.3955 43.8274 12.364C43.8319 12.3356 43.8358 12.3073 43.8396 12.2796C43.8447 12.2435 43.8492 12.2081 43.8531 12.1721C43.8697 12.0298 43.8819 11.8881 43.8896 11.7458C43.8921 11.7033 43.8941 11.6608 43.896 11.6176C43.8979 11.5681 43.8992 11.5191 43.8998 11.4695C43.9005 11.4283 43.9011 11.3865 43.9011 11.3453C43.9011 11.221 43.8979 11.0974 43.8915 10.9731C43.8812 10.7741 43.8627 10.576 43.8358 10.3787C43.6062 8.69262 42.7804 7.14582 41.5093 6.0211C40.2383 4.89638 38.6069 4.26886 36.9133 4.25323C35.2198 4.2376 33.5772 4.83491 32.2858 5.93599C30.9944 7.03706 30.1405 8.56835 29.8801 10.25C29.8737 10.2925 29.8673 10.3356 29.8615 10.3787C29.8404 10.5333 29.8246 10.6885 29.8141 10.8443C29.8109 10.8874 29.8083 10.9299 29.8064 10.9731C29.7496 12.0649 29.9453 13.1552 30.3781 14.1583C30.811 15.1614 31.4691 16.0502 32.3011 16.7548C32.4562 16.8862 32.6151 17.0098 32.7779 17.1257C32.7785 17.1264 32.7791 17.1264 32.7798 17.127C32.8343 17.1657 32.8887 17.2036 32.9438 17.241C33.0316 17.2989 33.1201 17.3556 33.2091 17.4097C33.2162 17.4136 33.2232 17.4181 33.2303 17.4219C33.3072 17.4683 33.3847 17.5127 33.4623 17.5559H33.4629C33.7515 17.7153 34.0511 17.8539 34.3594 17.9706C35.2639 18.3125 36.2285 18.4646 37.1937 18.4174H37.1956C38.3222 18.3627 39.4192 18.0365 40.3939 17.4664C40.5356 17.3839 40.6753 17.2957 40.8118 17.2017C40.8457 17.1785 40.8803 17.1547 40.9136 17.1309C40.9547 17.1019 40.9957 17.0716 41.0367 17.0414C41.0373 17.0414 41.0373 17.0407 41.038 17.0407C41.041 17.0382 41.0442 17.0358 41.0476 17.0337C41.0751 17.0124 41.1033 16.9912 41.1302 16.9706C41.1373 16.9654 41.1443 16.9602 41.1514 16.9545C41.1532 16.9531 41.155 16.9516 41.1565 16.9499C41.1725 16.9384 41.1879 16.9255 41.2039 16.9132C41.2199 16.901 41.2353 16.8881 41.2513 16.8753C41.2541 16.8735 41.2566 16.8716 41.259 16.8695C41.277 16.8546 41.2949 16.8405 41.3129 16.8257C41.3314 16.8109 41.3494 16.7954 41.3667 16.7806C41.3846 16.7658 41.4019 16.751 41.4199 16.7355C41.4353 16.7226 41.4513 16.7091 41.4667 16.6949C41.4718 16.6911 41.4763 16.6866 41.4814 16.6821C41.4834 16.6802 41.4855 16.6784 41.4878 16.6769C41.509 16.6589 41.5295 16.6402 41.55 16.6215C41.5551 16.617 41.5596 16.6125 41.5647 16.608C41.5961 16.5797 41.6275 16.5514 41.6583 16.5217C41.6653 16.5153 41.673 16.5082 41.6801 16.5018C41.6871 16.4953 41.6935 16.4889 41.7006 16.4825C41.7095 16.4734 41.7191 16.4651 41.7281 16.4561C41.7512 16.4342 41.7736 16.4116 41.7967 16.3891L41.8723 16.4535L41.8999 16.4767H41.9005L41.9088 16.4844L41.9389 16.5095L42.3862 16.8894L42.3959 16.8978L42.4035 16.9036L42.4542 16.9467L42.5554 17.033L42.6567 17.1186L42.6714 17.1309L43.1424 17.5301L43.2078 17.5855L43.6621 17.9706L46.0139 19.9648L46.0959 20.0343L49.3147 22.7633L50.1401 23.4632L50.447 23.7233C50.5122 23.7787 50.5876 23.8207 50.6689 23.8468C50.7502 23.8729 50.8358 23.8826 50.9208 23.8755C51.0059 23.8683 51.0887 23.8443 51.1645 23.805C51.2404 23.7656 51.3077 23.7116 51.3628 23.6461C51.4089 23.5917 51.4455 23.5299 51.4711 23.4632C51.5176 23.345 51.5286 23.2157 51.5028 23.0913C51.4769 22.9669 51.4153 22.8528 51.3256 22.7633ZM32.7631 7.83654C33.406 7.07102 34.2513 6.50386 35.2014 6.2006C36.1514 5.89734 37.1675 5.87034 38.1321 6.12273C39.0968 6.37512 39.9708 6.89659 40.653 7.62691C41.3352 8.35723 41.7979 9.2666 41.9877 10.25C41.996 10.2931 42.0037 10.3356 42.0107 10.3787C42.037 10.5326 42.0562 10.6885 42.0678 10.8443C42.071 10.8874 42.0742 10.9299 42.0761 10.9731C42.0818 11.0697 42.0844 11.1669 42.0844 11.2635C42.0848 11.8494 41.9882 12.4313 41.7986 12.9853V12.986C41.5867 13.6072 41.2614 14.1833 40.8393 14.6846C40.8303 14.6949 40.8214 14.7059 40.8118 14.7162C40.7272 14.8166 40.6381 14.9132 40.5465 15.0053C40.5458 15.006 40.5452 15.0072 40.5445 15.0079C40.5131 15.0394 40.4811 15.0716 40.449 15.1013C40.3837 15.165 40.317 15.2255 40.2491 15.2835C40.1472 15.373 40.0428 15.4569 39.9358 15.5353C39.8999 15.5617 39.864 15.5874 39.8275 15.6132C39.7916 15.6389 39.7551 15.6634 39.7185 15.6879C39.6455 15.7368 39.5711 15.7838 39.4962 15.8282C39.459 15.8508 39.4205 15.8727 39.3827 15.8939C39.3449 15.9158 39.3065 15.9364 39.268 15.9564C39.2296 15.977 39.1911 15.9969 39.1521 16.0163C39.0745 16.0555 38.9963 16.0922 38.9169 16.1264C38.8771 16.1444 38.8374 16.1611 38.7977 16.1766C38.7727 16.1869 38.7483 16.1972 38.7233 16.2062C38.7136 16.2108 38.7035 16.2146 38.6932 16.2178C38.6798 16.2236 38.6663 16.2288 38.6529 16.2333C38.6485 16.2353 38.644 16.237 38.6394 16.2384C38.6118 16.2494 38.5849 16.259 38.5567 16.2687C38.5164 16.2835 38.476 16.297 38.435 16.3099C38.394 16.3234 38.3536 16.3363 38.3126 16.3479C38.2716 16.3608 38.2299 16.3724 38.1889 16.3833C38.1472 16.3949 38.1062 16.4058 38.0646 16.4155C38.0204 16.4271 37.9762 16.4374 37.9313 16.447C37.8922 16.4561 37.8537 16.4638 37.8147 16.4709C37.7781 16.4786 37.741 16.485 37.7044 16.4915C37.6532 16.5005 37.6019 16.5089 37.55 16.516C37.5218 16.5205 37.4943 16.5243 37.4661 16.5269C37.4539 16.5288 37.4423 16.5301 37.4308 16.5314C37.3949 16.5366 37.359 16.5404 37.3238 16.5436C37.3142 16.5443 37.3052 16.5456 37.2962 16.5462C37.2572 16.5501 37.2174 16.5533 37.1783 16.5565C37.0944 16.5623 37.0111 16.5662 36.9271 16.5681C36.8848 16.5688 36.8419 16.5694 36.7996 16.5694C36.7573 16.5694 36.715 16.5688 36.6727 16.5675C36.6727 16.5675 36.6727 16.5681 36.6721 16.5675C36.6714 16.5681 36.6714 16.5681 36.6708 16.5675C36.6707 16.5675 36.6706 16.5676 36.6705 16.5677C36.6704 16.5677 36.6703 16.5677 36.6702 16.5677C36.67 16.5677 36.6699 16.5677 36.6698 16.5677C36.6697 16.5676 36.6696 16.5675 36.6695 16.5675C36.6674 16.5681 36.6652 16.5681 36.6631 16.5675C36.633 16.5675 36.6029 16.5662 36.5734 16.5642C36.5516 16.5636 36.5292 16.563 36.5068 16.561C36.4767 16.5597 36.4465 16.5578 36.4164 16.5552C36.4068 16.5552 36.3972 16.5539 36.3876 16.5533C36.3831 16.5532 36.3786 16.5528 36.3741 16.552C36.3434 16.5494 36.312 16.5469 36.2812 16.5436C36.2658 16.5424 36.2498 16.5411 36.2344 16.5391C36.1876 16.534 36.1409 16.5282 36.0947 16.5218C36.0422 16.5153 35.9896 16.5076 35.9377 16.4979C35.9134 16.4947 35.8897 16.4902 35.8659 16.4857C35.8346 16.4805 35.8032 16.4747 35.7718 16.4683C35.7391 16.4619 35.7064 16.4554 35.6737 16.4477C35.6474 16.4419 35.6205 16.4361 35.5942 16.4297C35.5814 16.4271 35.5686 16.4239 35.5564 16.4207C35.4891 16.4046 35.4225 16.3872 35.3565 16.3678C35.3148 16.3563 35.2732 16.344 35.2322 16.3311C35.1758 16.3138 35.12 16.2951 35.0643 16.2751C35.0425 16.268 35.0213 16.2603 34.9996 16.2519C34.9778 16.2449 34.9566 16.2365 34.9348 16.2281C34.915 16.221 34.8951 16.2133 34.8759 16.2056C34.8438 16.1933 34.8124 16.1805 34.781 16.1676C34.7163 16.1412 34.6529 16.1135 34.5894 16.0839C34.5535 16.0665 34.5177 16.0498 34.4824 16.0324C34.3434 15.9648 34.2065 15.8896 34.0717 15.807C34.0383 15.787 34.005 15.7658 33.9717 15.7445C33.93 15.7188 33.8897 15.6917 33.8493 15.6647C33.8269 15.6492 33.8051 15.6344 33.7833 15.619C33.7429 15.5906 33.7032 15.5617 33.6641 15.5327C33.6436 15.5179 33.6231 15.5024 33.6032 15.487C33.5321 15.4329 33.4623 15.3762 33.3937 15.3183C33.361 15.2906 33.3283 15.2622 33.2963 15.2333C33.2828 15.2217 33.2694 15.2094 33.2559 15.1972C33.2405 15.183 33.2251 15.1695 33.2104 15.1547L33.2091 15.1534C33.1867 15.1335 33.1643 15.1122 33.1425 15.091C33.1085 15.0588 33.0752 15.0259 33.0432 14.9924C33.0098 14.9596 32.9778 14.9255 32.9464 14.892C32.9144 14.8585 32.8836 14.8244 32.8535 14.7896C32.8227 14.7555 32.7926 14.7207 32.7631 14.6853C32.7343 14.6518 32.7061 14.617 32.6792 14.5829C32.6138 14.5018 32.5514 14.4191 32.4921 14.335C32.4645 14.2964 32.4382 14.2577 32.4126 14.2184C32.385 14.1785 32.3588 14.138 32.3338 14.0974C32.3075 14.0568 32.2825 14.0156 32.2582 13.9738C32.2575 13.9723 32.2567 13.971 32.2556 13.9699C32.2075 13.8881 32.1614 13.8057 32.1185 13.722C32.0742 13.637 32.0326 13.5511 31.9935 13.4644C31.9736 13.4213 31.9544 13.3775 31.9365 13.3337C31.8993 13.2455 31.8647 13.1573 31.8327 13.0678C31.8166 13.0246 31.8019 12.9815 31.7872 12.9377C31.7867 12.9348 31.7858 12.932 31.7846 12.9293C31.7551 12.8404 31.7282 12.751 31.7045 12.6608C31.7039 12.6595 31.7038 12.6582 31.7032 12.6569C31.691 12.6125 31.6795 12.5681 31.6693 12.523C31.659 12.4837 31.65 12.4444 31.6417 12.4045C31.6321 12.3601 31.6225 12.3157 31.6141 12.2706C31.6097 12.2474 31.6052 12.2242 31.6013 12.201C31.5975 12.1817 31.5943 12.1618 31.5911 12.1425C31.5879 12.1231 31.5847 12.1032 31.5815 12.0832C31.575 12.0439 31.5693 12.0047 31.5642 11.9654C31.5577 11.919 31.5526 11.8726 31.5475 11.8256C31.5417 11.7696 31.5366 11.7136 31.5321 11.6569C31.5289 11.6189 31.527 11.5803 31.5251 11.5417C31.5231 11.5063 31.5212 11.4708 31.5206 11.4354C31.5199 11.4335 31.5199 11.4315 31.5206 11.4296C31.5205 11.4295 31.5204 11.4294 31.5204 11.4293C31.5203 11.4292 31.5203 11.4291 31.5203 11.429C31.5203 11.4289 31.5203 11.4287 31.5204 11.4286C31.5204 11.4285 31.5205 11.4284 31.5206 11.4283C31.5199 11.4277 31.5199 11.4277 31.5206 11.4271C31.5205 11.427 31.5204 11.4269 31.5204 11.4268C31.5203 11.4266 31.5203 11.4265 31.5203 11.4264C31.5203 11.4263 31.5203 11.4262 31.5204 11.4261C31.5204 11.4259 31.5205 11.4258 31.5206 11.4258C31.5199 11.4116 31.5193 11.3974 31.5193 11.3833C31.518 11.3414 31.5174 11.2996 31.5174 11.2577C31.5174 11.2197 31.518 11.1824 31.5187 11.1444C31.5199 11.0916 31.5219 11.0388 31.5244 10.986C31.5244 10.9744 31.5257 10.9634 31.5264 10.9518C31.527 10.9403 31.5276 10.9293 31.5283 10.9177C31.5295 10.8932 31.5315 10.8688 31.534 10.8443C31.5339 10.8398 31.5341 10.8353 31.5347 10.8308C31.5366 10.8031 31.5392 10.7754 31.5417 10.7477C31.5469 10.6923 31.5533 10.6363 31.5603 10.5809C31.5642 10.5533 31.5674 10.5256 31.5719 10.4979C31.5744 10.4786 31.5776 10.4586 31.5808 10.4386C31.5834 10.4187 31.5866 10.3987 31.5904 10.3788C31.5949 10.3524 31.5994 10.3253 31.6045 10.2983C31.6071 10.2822 31.6103 10.2661 31.6135 10.25C31.6257 10.1856 31.6391 10.1212 31.6539 10.0568C31.6686 9.99176 31.6853 9.92736 31.7032 9.86297C31.7205 9.79794 31.7397 9.7329 31.7602 9.66786C31.7699 9.63503 31.7801 9.60283 31.7916 9.57063C31.8128 9.5056 31.8352 9.44121 31.8602 9.37746C31.8717 9.34591 31.8839 9.31371 31.8974 9.28216C31.923 9.21841 31.9499 9.15466 31.9775 9.0922C31.9916 9.06065 32.0057 9.0291 32.021 8.99755C32.0499 8.93509 32.08 8.87262 32.1127 8.81145C32.1441 8.74899 32.1781 8.68782 32.2127 8.62729C32.2473 8.56676 32.2831 8.50623 32.321 8.44635C32.3383 8.41673 32.3575 8.38647 32.3773 8.35749C32.4158 8.29825 32.4562 8.23901 32.4972 8.18105C32.5799 8.06385 32.6689 7.94859 32.7631 7.83654ZM31.5334 10.8443C31.5315 10.8688 31.5296 10.8932 31.5283 10.9177C31.5296 10.8932 31.5315 10.8688 31.5341 10.8443C31.5339 10.8398 31.5342 10.8353 31.5347 10.8308C31.5341 10.8353 31.5341 10.8398 31.5334 10.8443ZM31.6129 10.25C31.6103 10.2661 31.6071 10.2822 31.6045 10.2983C31.6071 10.2822 31.6103 10.2661 31.6135 10.25H31.6129ZM33.2091 15.1534V15.154C33.2091 15.1547 33.2098 15.1547 33.2104 15.1547L33.2091 15.1534Z" fill="#F1A5C2"/>
<path opacity="0.3" d="M33.392 15.3179C32.3784 14.4584 31.7235 13.2473 31.5574 11.9251C31.3913 10.6029 31.7262 9.26629 32.4954 8.18066C32.3944 8.28289 32.2967 8.38996 32.2024 8.50186C31.755 9.03472 31.4164 9.65092 31.2059 10.3153C30.9954 10.9796 30.9173 11.6791 30.9758 12.3739C31.0344 13.0686 31.2286 13.7449 31.5473 14.3642C31.866 14.9835 32.3029 15.5337 32.8332 15.9833C33.9042 16.8914 35.2902 17.3347 36.6865 17.2159C38.0828 17.097 39.3749 16.4257 40.2786 15.3495C40.3727 15.2375 40.4613 15.1227 40.5444 15.0053C39.6088 15.9499 38.3539 16.5064 37.0289 16.5643C35.7039 16.6222 34.4057 16.1773 33.392 15.3179Z" fill="black"/>
</svg>
