<svg width="39" height="24" viewBox="0 0 39 24" fill="none" xmlns="http://www.w3.org/2000/svg">
<path d="M36.4697 10.5163V23.7296H1.92578V12.2059L3.07211 9.43451H35.9971L36.4697 10.5163Z" fill="#E6E6E6"/>
<path d="M38.5408 15.2539L36.4706 13.4911L32.8032 10.3692L27.3614 15.3976L1.9266 15.57L0.53125 15.5793L1.9266 12.2067L3.07294 9.43532L4.47008 2.89837L34.4594 2.7547L35.9979 9.43532L36.4706 10.5172L38.5408 15.2539Z" fill="#2F2E41"/>
<path d="M23.4534 13.4897H9.73047V6.44988L16.5919 3.40228L23.4534 6.44988V13.4897Z" fill="#E6E6E6"/>
<path d="M9.0568 16.5107H3.02344V23.7301H9.0568V16.5107Z" fill="white"/>
<path d="M22.3061 16.5107H11.3633V23.7301H22.3061V16.5107Z" fill="white"/>
<path d="M26.2009 17.0849H24.3672V23.7296H26.2009V17.0849Z" fill="white"/>
<path d="M34.1761 15.5751H30.4453V20.1581H34.1761V15.5751Z" fill="#6C63FF"/>
<path d="M32.4096 15.5751H32.1523V20.1581H32.4096V15.5751Z" fill="#E6E6E6"/>
<path d="M22.2699 7.67572H18.5391V12.2587H22.2699V7.67572Z" fill="#6C63FF"/>
<path d="M20.5268 7.67572H20.2695V12.2587H20.5268V7.67572Z" fill="#E6E6E6"/>
<path d="M15.4105 7.67572H11.6797V12.2587H15.4105V7.67572Z" fill="#6C63FF"/>
<path d="M13.6675 7.67572H13.4102V12.2587H13.6675V7.67572Z" fill="#E6E6E6"/>
<path d="M33.5772 11.8613H31.832V13.9808H33.5772V11.8613Z" fill="#3F3D56"/>
<path d="M26.1343 0H25.2617V3.39109H26.1343V0Z" fill="#2F2E41"/>
</svg>
