<svg width="42" height="37" viewBox="0 0 42 37" fill="none" xmlns="http://www.w3.org/2000/svg">
<path d="M39.5804 16.8797C38.1545 18.6927 38.7084 21.3414 39.6145 23.4622C39.9183 24.1725 40.2611 24.9221 40.1334 25.6839C39.977 26.6151 39.1475 27.2971 38.2728 27.6555C36.6821 28.3133 34.7777 28.1565 33.3164 27.2473C32.0532 26.4614 31.1485 25.1834 29.8638 24.4333C27.7129 23.1786 24.9768 23.6522 22.6422 24.5166C20.9905 25.1283 19.1846 25.9241 17.5432 25.2847C16.3885 24.8366 15.5899 23.7401 15.1548 22.5795C14.9447 22.0189 14.7923 21.4144 14.3931 20.9664C14.1547 20.7024 13.8437 20.5147 13.5246 20.3569C10.612 18.9136 6.93756 19.6848 4.11093 18.086C2.20157 17.0052 0.97915 14.9659 0.436499 12.8397C-0.106152 10.7135 -0.0416254 8.48375 0.0959417 6.29435C0.193628 4.73811 0.368835 3.07702 1.36317 1.87568C2.41442 0.610254 4.21982 0.137961 5.8536 0.379485C7.48738 0.621009 8.96432 1.4818 10.2652 2.49539C11.8913 3.76216 13.3992 5.33991 15.3959 5.85342C16.7555 6.20294 18.1858 6.0116 19.5884 5.94573C21.9328 5.83505 24.2777 6.08016 26.6092 6.34902C28.8412 6.60712 31.0902 6.89121 33.2156 7.61713C34.7203 8.1311 35.9266 9.06358 37.3475 9.71512C38.2737 10.1399 39.2838 10.2573 40.1602 10.7982C41.2406 11.4645 42.2305 12.6237 41.9527 13.9796C41.6887 15.2706 40.3377 15.9154 39.5804 16.8797Z" fill="#3D79EF" fill-opacity="0.4"/>
<path opacity="0.1" d="M3.3125 31.7134C3.63155 31.8779 3.96583 32.0199 4.29563 32.1615C5.51402 32.676 6.75078 33.1948 8.05969 33.3714C10.5162 33.7025 13.0533 32.8059 15.4682 33.3638C17.4913 33.8307 19.1645 35.2615 21.1411 35.8987C22.0602 36.1948 23.0164 36.3109 23.9812 36.3109H24.1058C24.2253 36.3094 24.3438 36.3064 24.4616 36.3019C25.4398 36.2652 26.422 36.1205 27.3809 35.9354C30.4088 35.3529 33.4903 34.2851 35.8052 32.3193C29.0667 31.0857 15.1823 29.1956 3.3125 31.7134Z" fill="#6C63FF"/>
<path d="M4.95995 31.5831C4.95995 31.5831 6.06542 27.8299 4.75248 25.0674C4.20131 23.9081 4.01849 22.6064 4.27301 21.3482C4.39472 20.7508 4.57096 20.1658 4.79953 19.6006" stroke="#535461" stroke-width="2" stroke-miterlimit="10"/>
<path d="M3.98828 17.8567C3.98828 18.3169 4.8213 19.649 4.8213 19.649C4.8213 19.649 5.65432 18.3151 5.65432 17.8567C5.64928 17.6391 5.55932 17.4322 5.40369 17.2802C5.24806 17.1281 5.03911 17.043 4.82153 17.043C4.60394 17.043 4.39499 17.1281 4.23936 17.2802C4.08373 17.4322 3.99378 17.6391 3.98873 17.8567H3.98828Z" fill="#6C63FF"/>
<path d="M2.61011 20.4054C2.86015 20.7917 4.28421 21.4584 4.28421 21.4584C4.28421 21.4584 4.25823 19.8861 4.00818 19.4998C3.95014 19.405 3.87371 19.3228 3.78339 19.258C3.69308 19.1932 3.59071 19.1471 3.48232 19.1225C3.37392 19.0979 3.2617 19.0952 3.15225 19.1146C3.04281 19.134 2.93835 19.1752 2.84505 19.2356C2.75174 19.296 2.67147 19.3744 2.60896 19.4664C2.54645 19.5583 2.50297 19.6618 2.48107 19.7707C2.45918 19.8797 2.45931 19.992 2.48148 20.1009C2.50364 20.2098 2.54737 20.3132 2.61011 20.405V20.4054Z" fill="#6C63FF"/>
<path d="M2.66839 24.759C3.0793 24.966 4.64497 24.823 4.64497 24.823C4.64497 24.823 3.82898 23.4787 3.41807 23.2717C3.3201 23.2192 3.2126 23.1868 3.10192 23.1765C2.99123 23.1661 2.8796 23.178 2.77359 23.2115C2.66759 23.245 2.56935 23.2993 2.48468 23.3714C2.4 23.4434 2.3306 23.5316 2.28056 23.6309C2.23053 23.7302 2.20086 23.8385 2.19332 23.9494C2.18578 24.0603 2.20052 24.1716 2.23666 24.2767C2.27281 24.3818 2.32962 24.4786 2.40377 24.5615C2.47792 24.6443 2.56789 24.7114 2.66839 24.759Z" fill="#6C63FF"/>
<path d="M3.4612 28.0427C3.83089 28.316 5.3988 28.4397 5.3988 28.4397C5.3988 28.4397 4.82164 26.9771 4.45196 26.7033C4.27423 26.574 4.05261 26.5202 3.83538 26.5536C3.61815 26.587 3.42292 26.7049 3.29222 26.8816C3.16152 27.0583 3.10594 27.2794 3.13759 27.4969C3.16925 27.7144 3.28556 27.9106 3.4612 28.0427Z" fill="#6C63FF"/>
<path d="M6.02739 21.5449C5.69759 21.8653 4.16016 22.1973 4.16016 22.1973C4.16016 22.1973 4.53656 20.6706 4.86636 20.3498C5.02484 20.1959 5.23799 20.1112 5.45892 20.1143C5.67985 20.1175 5.89046 20.2084 6.04442 20.3668C6.19839 20.5253 6.28309 20.7385 6.27989 20.9594C6.2767 21.1803 6.18587 21.3909 6.02739 21.5449Z" fill="#6C63FF"/>
<path d="M6.90608 25.4001C6.49517 25.6072 4.9295 25.4642 4.9295 25.4642C4.9295 25.4642 5.7455 24.1199 6.15641 23.9129C6.35302 23.8186 6.57877 23.8052 6.78518 23.8755C6.9916 23.9458 7.16222 24.0942 7.26042 24.2889C7.35862 24.4836 7.37656 24.709 7.31039 24.9168C7.24423 25.1245 7.09923 25.2981 6.90653 25.4001H6.90608Z" fill="#6C63FF"/>
<path d="M7.23837 29.2595C6.86869 29.5328 5.30078 29.6565 5.30078 29.6565C5.30078 29.6565 5.87794 28.1939 6.24762 27.9201C6.42535 27.7908 6.64697 27.737 6.8642 27.7704C7.08142 27.8038 7.27666 27.9217 7.40736 28.0984C7.53806 28.2751 7.59364 28.4962 7.56198 28.7137C7.53033 28.9312 7.41401 29.1274 7.23837 29.2595Z" fill="#6C63FF"/>
<path opacity="0.25" d="M3.98828 17.8567C3.98828 18.3169 4.8213 19.649 4.8213 19.649C4.8213 19.649 5.65432 18.3151 5.65432 17.8567C5.64928 17.6391 5.55932 17.4322 5.40369 17.2802C5.24806 17.1281 5.03911 17.043 4.82153 17.043C4.60394 17.043 4.39499 17.1281 4.23936 17.2802C4.08373 17.4322 3.99378 17.6391 3.98873 17.8567H3.98828Z" fill="black"/>
<path opacity="0.25" d="M2.61011 20.4054C2.86015 20.7917 4.28421 21.4584 4.28421 21.4584C4.28421 21.4584 4.25823 19.8861 4.00818 19.4998C3.95014 19.405 3.87371 19.3228 3.78339 19.258C3.69308 19.1932 3.59071 19.1471 3.48232 19.1225C3.37392 19.0979 3.2617 19.0952 3.15225 19.1146C3.04281 19.134 2.93835 19.1752 2.84505 19.2356C2.75174 19.296 2.67147 19.3744 2.60896 19.4664C2.54645 19.5583 2.50297 19.6618 2.48107 19.7707C2.45918 19.8797 2.45931 19.992 2.48148 20.1009C2.50364 20.2098 2.54737 20.3132 2.61011 20.405V20.4054Z" fill="black"/>
<path opacity="0.25" d="M2.66839 24.759C3.0793 24.966 4.64497 24.823 4.64497 24.823C4.64497 24.823 3.82898 23.4787 3.41807 23.2717C3.3201 23.2192 3.2126 23.1868 3.10192 23.1765C2.99123 23.1661 2.8796 23.178 2.77359 23.2115C2.66759 23.245 2.56935 23.2993 2.48468 23.3714C2.4 23.4434 2.3306 23.5316 2.28056 23.6309C2.23053 23.7302 2.20086 23.8385 2.19332 23.9494C2.18578 24.0603 2.20052 24.1716 2.23666 24.2767C2.27281 24.3818 2.32962 24.4786 2.40377 24.5615C2.47792 24.6443 2.56789 24.7114 2.66839 24.759Z" fill="black"/>
<path opacity="0.25" d="M3.4612 28.0427C3.83089 28.316 5.3988 28.4397 5.3988 28.4397C5.3988 28.4397 4.82164 26.9771 4.45196 26.7033C4.27423 26.574 4.05261 26.5202 3.83538 26.5536C3.61815 26.587 3.42292 26.7049 3.29222 26.8816C3.16152 27.0583 3.10594 27.2794 3.13759 27.4969C3.16925 27.7144 3.28556 27.9106 3.4612 28.0427Z" fill="black"/>
<path opacity="0.25" d="M6.02739 21.5449C5.69759 21.8653 4.16016 22.1973 4.16016 22.1973C4.16016 22.1973 4.53656 20.6706 4.86636 20.3498C5.02484 20.1959 5.23799 20.1112 5.45892 20.1143C5.67985 20.1175 5.89046 20.2084 6.04442 20.3668C6.19839 20.5253 6.28309 20.7385 6.27989 20.9594C6.2767 21.1803 6.18587 21.3909 6.02739 21.5449Z" fill="black"/>
<path opacity="0.25" d="M6.90608 25.4001C6.49517 25.6072 4.9295 25.4642 4.9295 25.4642C4.9295 25.4642 5.7455 24.1199 6.15641 23.9129C6.35302 23.8186 6.57877 23.8052 6.78518 23.8755C6.9916 23.9458 7.16222 24.0942 7.26042 24.2889C7.35862 24.4836 7.37656 24.709 7.31039 24.9168C7.24423 25.1245 7.09923 25.2981 6.90653 25.4001H6.90608Z" fill="black"/>
<path opacity="0.25" d="M7.23837 29.2595C6.86869 29.5328 5.30078 29.6565 5.30078 29.6565C5.30078 29.6565 5.87794 28.1939 6.24762 27.9201C6.42535 27.7908 6.64697 27.737 6.8642 27.7704C7.08142 27.8038 7.27666 27.9217 7.40736 28.0984C7.53806 28.2751 7.59364 28.4962 7.56198 28.7137C7.53033 28.9312 7.41401 29.1274 7.23837 29.2595Z" fill="black"/>
<path d="M10.6658 30.4398C10.6658 30.4398 11.2645 28.4077 10.5538 26.9124C10.2518 26.2871 10.1607 25.5806 10.2944 24.8991C10.3603 24.5761 10.4557 24.2597 10.5793 23.9541" stroke="#535461" stroke-width="2" stroke-miterlimit="10"/>
<path d="M10.1411 23.0086C10.1411 23.2578 10.5919 23.9796 10.5919 23.9796C10.5919 23.9796 11.0427 23.2573 11.0427 23.0086C11.0427 22.889 10.9951 22.7743 10.9106 22.6897C10.826 22.6051 10.7113 22.5576 10.5916 22.5576C10.472 22.5576 10.3573 22.6051 10.2727 22.6897C10.1881 22.7743 10.1406 22.889 10.1406 23.0086H10.1411Z" fill="#6C63FF"/>
<path d="M9.39663 24.3885C9.53106 24.5974 10.3031 24.9585 10.3031 24.9585C10.3031 24.9585 10.2892 24.1071 10.1539 23.8983C10.1217 23.8486 10.0801 23.8057 10.0313 23.7721C9.98253 23.7385 9.92762 23.7148 9.8697 23.7024C9.81178 23.69 9.75198 23.6891 9.69372 23.6998C9.63547 23.7105 9.57989 23.7326 9.53016 23.7648C9.48044 23.797 9.43754 23.8386 9.40392 23.8874C9.3703 23.9362 9.34661 23.9911 9.33421 24.049C9.32181 24.1069 9.32094 24.1667 9.33165 24.225C9.34236 24.2832 9.36444 24.3388 9.39663 24.3885Z" fill="#6C63FF"/>
<path d="M9.42429 26.745C9.64834 26.8571 10.4944 26.7795 10.4944 26.7795C10.4944 26.7795 10.0525 26.0518 9.83027 25.9398C9.77731 25.9131 9.71961 25.8972 9.66048 25.8928C9.60135 25.8885 9.54194 25.8958 9.48564 25.9144C9.42935 25.933 9.37726 25.9625 9.33237 26.0012C9.28747 26.04 9.25064 26.0871 9.22399 26.1401C9.19733 26.1931 9.18136 26.2508 9.177 26.3099C9.17264 26.369 9.17997 26.4284 9.19857 26.4847C9.21717 26.541 9.24668 26.5931 9.28541 26.638C9.32414 26.6829 9.37133 26.7197 9.42429 26.7464V26.745Z" fill="#6C63FF"/>
<path d="M9.85179 28.5227C10.0521 28.6706 10.9008 28.7378 10.9008 28.7378C10.9008 28.7378 10.5871 27.946 10.3882 27.7968C10.3406 27.7615 10.2865 27.7359 10.229 27.7215C10.1715 27.7071 10.1117 27.7042 10.0531 27.7129C9.99445 27.7216 9.93811 27.7417 9.88727 27.7722C9.83643 27.8027 9.7921 27.8429 9.75679 27.8905C9.72148 27.9381 9.6959 27.9922 9.6815 28.0497C9.66709 28.1072 9.66416 28.1669 9.67285 28.2256C9.68155 28.2842 9.70171 28.3405 9.73218 28.3914C9.76265 28.4422 9.80284 28.4865 9.85044 28.5218L9.85179 28.5227Z" fill="#6C63FF"/>
<path d="M11.2453 25.0065C11.0661 25.1799 10.2344 25.3596 10.2344 25.3596C10.2344 25.3596 10.4383 24.5329 10.6166 24.3594C10.6587 24.3164 10.709 24.2821 10.7645 24.2588C10.8201 24.2355 10.8797 24.2235 10.9399 24.2236C11.0002 24.2237 11.0598 24.2359 11.1152 24.2595C11.1707 24.283 11.2208 24.3174 11.2627 24.3606C11.3047 24.4039 11.3375 24.4551 11.3593 24.5112C11.3811 24.5674 11.3915 24.6273 11.3897 24.6875C11.3879 24.7477 11.3741 24.807 11.3491 24.8618C11.3241 24.9166 11.2883 24.9658 11.2439 25.0065H11.2453Z" fill="#6C63FF"/>
<path d="M11.7146 27.0917C11.4905 27.2037 10.6445 27.1262 10.6445 27.1262C10.6445 27.1262 11.0864 26.3985 11.3086 26.2865C11.3616 26.2598 11.4193 26.2439 11.4784 26.2395C11.5375 26.2351 11.5969 26.2425 11.6532 26.2611C11.7095 26.2797 11.7616 26.3092 11.8065 26.3479C11.8514 26.3866 11.8882 26.4338 11.9149 26.4868C11.9416 26.5397 11.9575 26.5974 11.9619 26.6566C11.9662 26.7157 11.9589 26.7751 11.9403 26.8314C11.9217 26.8877 11.8922 26.9398 11.8535 26.9847C11.8147 27.0296 11.7676 27.0664 11.7146 27.0931V27.0917Z" fill="#6C63FF"/>
<path d="M11.8967 29.1819C11.6964 29.3298 10.8477 29.397 10.8477 29.397C10.8477 29.397 11.1613 28.6052 11.3603 28.456C11.4564 28.3847 11.577 28.3545 11.6954 28.3721C11.8138 28.3896 11.9204 28.4535 11.9917 28.5497C12.063 28.6458 12.0932 28.7663 12.0756 28.8847C12.058 29.0031 11.9942 29.1097 11.898 29.181L11.8967 29.1819Z" fill="#6C63FF"/>
<path opacity="0.5" d="M10.1411 23.0086C10.1411 23.2578 10.5919 23.9796 10.5919 23.9796C10.5919 23.9796 11.0427 23.2573 11.0427 23.0086C11.0427 22.889 10.9951 22.7743 10.9106 22.6897C10.826 22.6051 10.7113 22.5576 10.5916 22.5576C10.472 22.5576 10.3573 22.6051 10.2727 22.6897C10.1881 22.7743 10.1406 22.889 10.1406 23.0086H10.1411Z" fill="white"/>
<path opacity="0.5" d="M9.39663 24.3885C9.53106 24.5974 10.3031 24.9585 10.3031 24.9585C10.3031 24.9585 10.2892 24.1071 10.1539 23.8983C10.1217 23.8486 10.0801 23.8057 10.0313 23.7721C9.98253 23.7385 9.92762 23.7148 9.8697 23.7024C9.81178 23.69 9.75198 23.6891 9.69372 23.6998C9.63547 23.7105 9.57989 23.7326 9.53016 23.7648C9.48044 23.797 9.43754 23.8386 9.40392 23.8874C9.3703 23.9362 9.34661 23.9911 9.33421 24.049C9.32181 24.1069 9.32094 24.1667 9.33165 24.225C9.34236 24.2832 9.36444 24.3388 9.39663 24.3885Z" fill="white"/>
<path opacity="0.5" d="M9.42429 26.745C9.64834 26.8571 10.4944 26.7795 10.4944 26.7795C10.4944 26.7795 10.0525 26.0518 9.83027 25.9398C9.77731 25.9131 9.71961 25.8972 9.66048 25.8928C9.60135 25.8885 9.54194 25.8958 9.48564 25.9144C9.42935 25.933 9.37726 25.9625 9.33237 26.0012C9.28747 26.04 9.25064 26.0871 9.22399 26.1401C9.19733 26.1931 9.18136 26.2508 9.177 26.3099C9.17264 26.369 9.17997 26.4284 9.19857 26.4847C9.21717 26.541 9.24668 26.5931 9.28541 26.638C9.32414 26.6829 9.37133 26.7197 9.42429 26.7464V26.745Z" fill="white"/>
<path opacity="0.5" d="M9.85179 28.5227C10.0521 28.6706 10.9008 28.7378 10.9008 28.7378C10.9008 28.7378 10.5871 27.946 10.3882 27.7968C10.3406 27.7615 10.2865 27.7359 10.229 27.7215C10.1715 27.7071 10.1117 27.7042 10.0531 27.7129C9.99445 27.7216 9.93811 27.7417 9.88727 27.7722C9.83643 27.8027 9.7921 27.8429 9.75679 27.8905C9.72148 27.9381 9.6959 27.9922 9.6815 28.0497C9.66709 28.1072 9.66416 28.1669 9.67285 28.2256C9.68155 28.2842 9.70171 28.3405 9.73218 28.3914C9.76265 28.4422 9.80284 28.4865 9.85044 28.5218L9.85179 28.5227Z" fill="white"/>
<path opacity="0.5" d="M11.2453 25.0065C11.0661 25.1799 10.2344 25.3596 10.2344 25.3596C10.2344 25.3596 10.4383 24.5329 10.6166 24.3594C10.6587 24.3164 10.709 24.2821 10.7645 24.2588C10.8201 24.2355 10.8797 24.2235 10.9399 24.2236C11.0002 24.2237 11.0598 24.2359 11.1152 24.2595C11.1707 24.283 11.2208 24.3174 11.2627 24.3606C11.3047 24.4039 11.3375 24.4551 11.3593 24.5112C11.3811 24.5674 11.3915 24.6273 11.3897 24.6875C11.3879 24.7477 11.3741 24.807 11.3491 24.8618C11.3241 24.9166 11.2883 24.9658 11.2439 25.0065H11.2453Z" fill="white"/>
<path opacity="0.5" d="M11.7146 27.0917C11.4905 27.2037 10.6445 27.1262 10.6445 27.1262C10.6445 27.1262 11.0864 26.3985 11.3086 26.2865C11.3616 26.2598 11.4193 26.2439 11.4784 26.2395C11.5375 26.2351 11.5969 26.2425 11.6532 26.2611C11.7095 26.2797 11.7616 26.3092 11.8065 26.3479C11.8514 26.3866 11.8882 26.4338 11.9149 26.4868C11.9416 26.5397 11.9575 26.5974 11.9619 26.6566C11.9662 26.7157 11.9589 26.7751 11.9403 26.8314C11.9217 26.8877 11.8922 26.9398 11.8535 26.9847C11.8147 27.0296 11.7676 27.0664 11.7146 27.0931V27.0917Z" fill="white"/>
<path opacity="0.5" d="M11.8967 29.1819C11.6964 29.3298 10.8477 29.397 10.8477 29.397C10.8477 29.397 11.1613 28.6052 11.3603 28.456C11.4564 28.3847 11.577 28.3545 11.6954 28.3721C11.8138 28.3896 11.9204 28.4535 11.9917 28.5497C12.063 28.6458 12.0932 28.7663 12.0756 28.8847C12.058 29.0031 11.9942 29.1097 11.898 29.181L11.8967 29.1819Z" fill="white"/>
<path d="M9.37916 2.43287C9.3119 2.48802 9.25944 2.55905 9.22651 2.63955C9.19357 2.72005 9.1812 2.80748 9.19051 2.89396C9.2519 3.46394 9.43651 4.76028 9.89671 5.49023C9.9239 5.53355 9.95228 5.57492 9.98185 5.61435H12.4693C12.4693 5.61435 12.9765 3.72742 13.0101 2.89575C13.014 2.79984 12.9958 2.70431 12.957 2.61652C12.9181 2.52874 12.8597 2.45104 12.7861 2.38941C12.4133 2.07977 11.5381 1.40359 11.0416 1.4484H11.0318C11.0318 1.4484 10.8409 1.23466 9.37916 2.43287Z" fill="#D6DBE6"/>
<path opacity="0.05" d="M9.19034 2.89458C9.25173 3.46455 9.43635 4.7609 9.89655 5.49084C9.99558 5.53565 10.0969 5.57553 10.1972 5.61497C10.8246 5.86007 11.4174 6.00481 11.3215 5.61497C11.2996 5.53791 11.2674 5.46419 11.2256 5.39585C10.6552 4.40331 10.9191 2.23901 11.0401 1.4526H11.0302C11.0302 1.4526 10.8411 1.23662 9.37944 2.43483C9.31231 2.48981 9.25988 2.5606 9.22688 2.64084C9.19387 2.72109 9.18132 2.80828 9.19034 2.89458Z" fill="black"/>
<path d="M9.96484 5.54747C9.96484 5.6568 10.058 5.75762 10.2153 5.83918C10.323 5.89259 10.4365 5.93319 10.5536 5.96016C10.774 6.01151 10.9996 6.03662 11.2258 6.035C11.4977 6.03841 11.7686 6.00064 12.0292 5.92297C12.1357 5.89112 12.2369 5.8437 12.3295 5.78227C12.4281 5.71281 12.4845 5.63305 12.4845 5.54791C12.4845 5.42379 12.3649 5.31087 12.1682 5.22484C12.1365 5.2108 12.1027 5.19765 12.0669 5.18541C11.7953 5.09869 11.5114 5.05662 11.2263 5.06083C10.8265 5.06083 10.4708 5.13298 10.2404 5.24545C10.2017 5.26416 10.1644 5.28573 10.1288 5.30998C10.0235 5.37988 9.96484 5.46098 9.96484 5.54747Z" fill="#D6DBE6"/>
<path opacity="0.1" d="M9.94531 5.54747C9.94531 5.6568 10.0385 5.75762 10.1958 5.83918C10.3035 5.89259 10.417 5.93319 10.5341 5.96016C10.7544 6.01151 10.9801 6.03662 11.2063 6.035C11.4782 6.03841 11.7491 6.00064 12.0097 5.92297C12.1162 5.89112 12.2173 5.8437 12.3099 5.78227C12.4085 5.71281 12.465 5.63305 12.465 5.54791C12.465 5.42379 12.3453 5.31087 12.1486 5.22484C12.117 5.2108 12.0832 5.19765 12.0474 5.18541C11.7757 5.09869 11.4918 5.05662 11.2067 5.06083C10.807 5.06083 10.4512 5.13298 10.2209 5.24545C10.1822 5.26416 10.1449 5.28573 10.1093 5.30998C10.0036 5.37988 9.94531 5.46098 9.94531 5.54747Z" fill="black"/>
<path d="M11.4613 5.68091C11.4989 5.61282 11.5108 5.53354 11.4949 5.45742C11.4791 5.3813 11.4365 5.31338 11.3748 5.26597C11.3748 5.26597 11.2888 5.16246 11.3417 5.06836C11.3417 5.06836 10.9021 5.35873 11.1261 5.69256L11.4613 5.68091Z" fill="#FFD865"/>
<path d="M11.3552 5.69054C11.3721 5.65987 11.3774 5.62417 11.3703 5.58989C11.3631 5.55561 11.3439 5.52503 11.3162 5.50368C11.306 5.49142 11.2992 5.47664 11.2966 5.46088C11.294 5.44513 11.2957 5.42896 11.3014 5.41406C11.3014 5.41406 11.1033 5.54491 11.2046 5.69502L11.3552 5.69054Z" fill="#FFD865"/>
<path opacity="0.1" d="M11.3552 5.69054C11.3721 5.65987 11.3774 5.62417 11.3703 5.58989C11.3631 5.55561 11.3439 5.52503 11.3162 5.50368C11.306 5.49142 11.2992 5.47664 11.2966 5.46088C11.294 5.44513 11.2957 5.42896 11.3014 5.41406C11.3014 5.41406 11.1033 5.54491 11.2046 5.69502L11.3552 5.69054Z" fill="black"/>
<path d="M10.2148 5.83932C10.3225 5.89273 10.436 5.93333 10.5532 5.9603C10.9116 5.87696 11.9423 5.609 12.1663 5.22498C12.1347 5.21094 12.1009 5.19779 12.0651 5.18555C11.9199 5.35358 11.3369 5.93566 10.2148 5.83932Z" fill="#565387"/>
<path d="M10.125 5.30912C10.2594 5.55153 11.5141 5.82174 12.0263 5.92256C12.1328 5.8907 12.2339 5.84329 12.3265 5.78186C11.5969 5.77235 10.8802 5.58795 10.2366 5.24414C10.1978 5.26299 10.1605 5.28471 10.125 5.30912Z" fill="#565387"/>
<path opacity="0.35" d="M11.7224 2.41276C11.7963 2.48535 11.7757 2.60544 11.7672 2.7085C11.7528 2.90131 11.8021 3.0935 11.9074 3.25562C11.9729 3.35555 12.0629 3.45772 12.0468 3.57601C12.0307 3.69431 11.9074 3.77362 11.842 3.87803C11.7766 3.98244 11.7712 4.12224 11.7905 4.24816C11.8097 4.37407 11.8487 4.49685 11.8586 4.62366C11.863 4.65267 11.8597 4.68232 11.8492 4.7097C11.8332 4.73632 11.812 4.75947 11.7869 4.77781C11.7454 4.81488 11.7107 4.85884 11.6843 4.90775C11.6712 4.93771 11.6537 4.96552 11.6323 4.9902C11.6139 5.00666 11.5926 5.01958 11.5696 5.02829C11.4015 5.09909 11.2079 5.08654 11.0345 5.03098C10.8632 4.96856 10.6999 4.88614 10.5479 4.78542C10.5048 4.76277 10.4662 4.73239 10.4341 4.6958C10.3977 4.64131 10.3787 4.57713 10.3794 4.51164C10.3722 4.37138 10.3987 4.23023 10.3821 4.09043C10.3655 3.95062 10.3005 3.80992 10.2607 3.66922C10.185 3.40085 10.1959 3.11544 10.292 2.85368C10.3266 2.74381 10.3915 2.64595 10.4793 2.57138C10.6747 2.42261 10.9588 2.48176 11.1851 2.38721C11.3545 2.31552 11.5673 2.25996 11.7224 2.41276Z" fill="#FFD865"/>
<path d="M5.53684 9.16637C5.4979 9.19824 5.46752 9.2393 5.44843 9.28585C5.42934 9.3324 5.42215 9.38297 5.4275 9.43299C5.4629 9.76234 5.56955 10.512 5.83572 10.9341C5.85155 10.9592 5.86798 10.9831 5.88501 11.0058H7.32297C7.32297 11.0058 7.61603 9.91514 7.63664 9.43434C7.63884 9.37882 7.62822 9.32355 7.60561 9.27281C7.583 9.22206 7.54899 9.17721 7.50624 9.14173C7.2907 8.96249 6.7848 8.57265 6.49801 8.59864H6.49219C6.49219 8.59864 6.38196 8.47362 5.53684 9.16637Z" fill="#D6DBE6"/>
<path opacity="0.05" d="M5.42754 9.43246C5.46294 9.76181 5.56959 10.5115 5.83576 10.9336C5.89312 10.9582 5.95137 10.9824 6.00963 11.0053C6.37125 11.1469 6.71494 11.2293 6.65937 11.0053C6.64671 10.9607 6.62802 10.918 6.60381 10.8785C6.27401 10.3049 6.42457 9.05382 6.49671 8.59766H6.49089C6.49089 8.59766 6.38155 8.47264 5.53688 9.1654C5.49788 9.19731 5.46746 9.23844 5.44836 9.28507C5.42927 9.33171 5.42212 9.38237 5.42754 9.43246Z" fill="black"/>
<path d="M5.875 10.9676C5.875 11.0308 5.92877 11.0891 6.01974 11.1361C6.08191 11.167 6.14748 11.1904 6.21511 11.206C6.34195 11.2361 6.4719 11.2512 6.60227 11.2508C6.75917 11.2522 6.91538 11.2298 7.06561 11.1845C7.12727 11.1661 7.18586 11.1386 7.23947 11.103C7.2641 11.0894 7.2851 11.0701 7.3007 11.0467C7.3163 11.0233 7.32604 10.9965 7.32909 10.9685C7.32909 10.8968 7.26008 10.8314 7.14626 10.7817C7.12774 10.7736 7.10818 10.766 7.08756 10.7588C6.93047 10.7086 6.76627 10.6843 6.60137 10.6867C6.3706 10.6867 6.16447 10.7284 6.03139 10.7933C6.00899 10.8041 5.98742 10.8165 5.96686 10.8305C5.94168 10.8444 5.9202 10.864 5.90421 10.8879C5.88822 10.9117 5.8782 10.9391 5.875 10.9676Z" fill="#D6DBE6"/>
<path opacity="0.1" d="M5.85938 10.9673C5.85938 11.0305 5.91315 11.0887 6.00411 11.1358C6.06628 11.1666 6.13185 11.1901 6.19948 11.2057C6.32633 11.2358 6.45628 11.2508 6.58664 11.2505C6.74378 11.2524 6.9003 11.2305 7.05088 11.1855C7.11254 11.167 7.17113 11.1396 7.22474 11.1039C7.24937 11.0904 7.27037 11.0711 7.28597 11.0477C7.30157 11.0243 7.31131 10.9975 7.31436 10.9695C7.31436 10.8978 7.24535 10.8324 7.13154 10.7827C7.11301 10.7746 7.09345 10.767 7.07283 10.7598C6.91574 10.7096 6.75154 10.6852 6.58664 10.6877C6.35587 10.6877 6.14975 10.7293 6.01666 10.7943C5.99426 10.8051 5.97269 10.8175 5.95213 10.8315C5.92696 10.8451 5.9054 10.8645 5.88927 10.8881C5.87313 10.9117 5.86288 10.9389 5.85938 10.9673Z" fill="black"/>
<path d="M6.73817 11.0434C6.75993 11.0041 6.76688 10.9583 6.75776 10.9144C6.74863 10.8704 6.72403 10.8311 6.68843 10.8037C6.67511 10.7882 6.66627 10.7694 6.66288 10.7493C6.65948 10.7291 6.66166 10.7084 6.66917 10.6895C6.66917 10.6895 6.41509 10.8575 6.54459 11.0502L6.73817 11.0434Z" fill="#FFD865"/>
<path d="M6.6816 11.0492C6.69138 11.0315 6.6945 11.0108 6.69039 10.991C6.68628 10.9712 6.67522 10.9535 6.6592 10.9412C6.65323 10.9342 6.64928 10.9257 6.64778 10.9166C6.64628 10.9075 6.64729 10.8982 6.65068 10.8896C6.65068 10.8896 6.53642 10.9654 6.59467 11.0519L6.6816 11.0492Z" fill="#FFD865"/>
<path opacity="0.1" d="M6.6816 11.0492C6.69138 11.0315 6.6945 11.0108 6.69039 10.991C6.68628 10.9712 6.67522 10.9535 6.6592 10.9412C6.65323 10.9342 6.64928 10.9257 6.64778 10.9166C6.64628 10.9075 6.64729 10.8982 6.65068 10.8896C6.65068 10.8896 6.53642 10.9654 6.59467 11.0519L6.6816 11.0492Z" fill="black"/>
<path d="M6.01562 11.136C6.0778 11.1669 6.14337 11.1903 6.211 11.2059C6.41847 11.158 7.01355 11.0029 7.14305 10.7807C7.12453 10.7726 7.10496 10.765 7.08435 10.7578C7.00145 10.855 6.66448 11.1916 6.01562 11.136Z" fill="#565387"/>
<path d="M5.96875 10.8287C6.04627 10.9689 6.7722 11.1248 7.06794 11.1831C7.12961 11.1646 7.1882 11.1372 7.24181 11.1015C6.81946 11.0964 6.40453 10.9899 6.03193 10.791C6.00998 10.802 5.98886 10.8146 5.96875 10.8287Z" fill="#565387"/>
<path opacity="0.35" d="M6.88683 9.15499C6.93164 9.19666 6.91775 9.26657 6.91282 9.32616C6.90451 9.43765 6.933 9.54878 6.99392 9.64252C7.03156 9.70032 7.08354 9.75947 7.07458 9.82758C7.06562 9.89569 6.99392 9.94185 6.95628 10.0023C6.9213 10.0678 6.91067 10.1435 6.92626 10.2161C6.93746 10.2887 6.95987 10.3599 6.96569 10.433C6.96825 10.4497 6.9664 10.4669 6.96032 10.4827C6.95112 10.4981 6.93893 10.5115 6.92447 10.5221C6.90056 10.5436 6.88054 10.5691 6.86532 10.5974C6.85777 10.6147 6.84764 10.6307 6.83529 10.6449C6.82465 10.6544 6.81235 10.6618 6.799 10.6669C6.6992 10.7035 6.58961 10.7035 6.48981 10.6669C6.39074 10.6308 6.29628 10.5831 6.2084 10.5248C6.18344 10.5117 6.16111 10.4941 6.14253 10.4728C6.1215 10.4414 6.11042 10.4044 6.11071 10.3666C6.10668 10.2855 6.12192 10.204 6.11071 10.1233C6.09365 10.0404 6.07013 9.95886 6.04036 9.87956C5.99667 9.72442 6.0031 9.55944 6.05874 9.40816C6.0788 9.34467 6.11639 9.28813 6.16718 9.24506C6.2801 9.15902 6.44455 9.19397 6.5754 9.13841C6.67353 9.09898 6.79676 9.06672 6.88683 9.15499Z" fill="#FFD865"/>
<path d="M28.3806 8.30114C28.3417 8.33301 28.3113 8.37407 28.2922 8.42061C28.2731 8.46716 28.2659 8.51773 28.2712 8.56776C28.3066 8.89711 28.4133 9.64677 28.6795 10.0689C28.6953 10.094 28.7117 10.1179 28.7288 10.1406H30.1667C30.1667 10.1406 30.4598 9.04991 30.4804 8.5691C30.4826 8.51359 30.472 8.45832 30.4494 8.40757C30.4267 8.35683 30.3927 8.31197 30.35 8.27649C30.1345 8.09726 29.6285 7.70741 29.3418 7.7334H29.3359C29.3359 7.7334 29.2257 7.60838 28.3806 8.30114Z" fill="#D6DBE6"/>
<path opacity="0.05" d="M28.2713 8.56625C28.3067 8.8956 28.4133 9.64527 28.6795 10.0674C28.7369 10.092 28.7951 10.1162 28.8534 10.1391C29.215 10.2807 29.5587 10.3631 29.5031 10.1391C29.4905 10.0945 29.4718 10.0518 29.4476 10.0123C29.1178 9.43869 29.2683 8.18761 29.3405 7.73145H29.3346C29.3346 7.73145 29.2253 7.60643 28.3806 8.29919C28.3416 8.3311 28.3112 8.37223 28.2921 8.41886C28.273 8.4655 28.2659 8.51616 28.2713 8.56625Z" fill="black"/>
<path d="M28.7227 10.1014C28.7227 10.1646 28.7764 10.2228 28.8674 10.2699C28.9296 10.3007 28.9951 10.3242 29.0628 10.3398C29.1896 10.3699 29.3196 10.3849 29.4499 10.3846C29.6068 10.386 29.763 10.3636 29.9133 10.3183C29.9749 10.2998 30.0335 10.2724 30.0871 10.2367C30.1118 10.2232 30.1328 10.2039 30.1484 10.1805C30.164 10.1571 30.1737 10.1303 30.1767 10.1023C30.1767 10.0306 30.1077 9.96519 29.9939 9.91545C29.9754 9.90739 29.9558 9.89977 29.9352 9.8926C29.7786 9.84254 29.6148 9.81818 29.4504 9.82046C29.2196 9.82046 29.0135 9.86213 28.8804 9.92711C28.858 9.93788 28.8364 9.95032 28.8159 9.9643C28.7904 9.97796 28.7687 9.99756 28.7525 10.0214C28.7362 10.0453 28.726 10.0727 28.7227 10.1014Z" fill="#D6DBE6"/>
<path opacity="0.1" d="M28.7031 10.1014C28.7031 10.1646 28.7569 10.2228 28.8479 10.2699C28.91 10.3007 28.9756 10.3242 29.0432 10.3398C29.1701 10.3699 29.3 10.3849 29.4304 10.3846C29.5875 10.3865 29.744 10.3645 29.8946 10.3196C29.9563 10.3011 30.0149 10.2737 30.0685 10.238C30.0931 10.2245 30.1141 10.2052 30.1297 10.1818C30.1453 10.1584 30.1551 10.1316 30.1581 10.1036C30.1581 10.0319 30.0891 9.9665 29.9753 9.91676C29.9568 9.90869 29.9372 9.90108 29.9166 9.89391C29.7597 9.8433 29.5957 9.81848 29.4308 9.82042C29.2001 9.82042 28.9939 9.86209 28.8609 9.92707C28.8385 9.93784 28.8169 9.95028 28.7963 9.96426C28.7709 9.97792 28.7491 9.99752 28.7329 10.0214C28.7167 10.0453 28.7065 10.0727 28.7031 10.1014Z" fill="black"/>
<path d="M29.5858 10.1802C29.6076 10.1409 29.6145 10.0951 29.6054 10.0511C29.5963 10.0071 29.5717 9.96784 29.5361 9.94044C29.5228 9.92496 29.5139 9.90613 29.5105 9.88599C29.5071 9.86585 29.5093 9.84516 29.5168 9.82617C29.5168 9.82617 29.2627 9.99421 29.3922 10.1869L29.5858 10.1802Z" fill="#FFD865"/>
<path d="M29.5214 10.1839C29.5312 10.1662 29.5343 10.1456 29.5302 10.1258C29.5261 10.106 29.5151 10.0883 29.499 10.0759C29.4931 10.0689 29.4891 10.0604 29.4876 10.0514C29.4861 10.0423 29.4871 10.033 29.4905 10.0244C29.4905 10.0244 29.3763 10.1001 29.4345 10.1866L29.5214 10.1839Z" fill="#FFD865"/>
<path opacity="0.1" d="M29.5214 10.1839C29.5312 10.1662 29.5343 10.1456 29.5302 10.1258C29.5261 10.106 29.5151 10.0883 29.499 10.0759C29.4931 10.0689 29.4891 10.0604 29.4876 10.0514C29.4861 10.0423 29.4871 10.033 29.4905 10.0244C29.4905 10.0244 29.3763 10.1001 29.4345 10.1866L29.5214 10.1839Z" fill="black"/>
<path d="M28.8674 10.2687C28.9295 10.2995 28.9951 10.323 29.0627 10.3386C29.2702 10.2906 29.8653 10.1356 29.9948 9.91333C29.9763 9.90526 29.9567 9.89764 29.9361 9.89047C29.8532 9.9895 29.5162 10.3256 28.8674 10.2687Z" fill="#565387"/>
<path d="M28.8164 9.96342C28.8939 10.1037 29.6199 10.2596 29.9156 10.3179C29.9773 10.2994 30.0358 10.2719 30.0895 10.2363C29.6671 10.2312 29.2522 10.1247 28.8796 9.92578C28.8576 9.93676 28.8365 9.94934 28.8164 9.96342Z" fill="#565387"/>
<path opacity="0.35" d="M29.7425 8.29C29.7873 8.33167 29.7734 8.40158 29.7685 8.46117C29.7602 8.57266 29.7887 8.68379 29.8496 8.77753C29.8872 8.83533 29.9392 8.89448 29.9302 8.96259C29.9213 9.0307 29.8496 9.07686 29.8119 9.13735C29.777 9.2028 29.7663 9.27854 29.7819 9.35109C29.7931 9.42368 29.8155 9.49493 29.8213 9.56797C29.8239 9.58473 29.822 9.60188 29.816 9.61771C29.8068 9.63311 29.7946 9.64652 29.7801 9.65714C29.7562 9.67863 29.7362 9.7041 29.721 9.73242C29.7134 9.74968 29.7033 9.76569 29.6909 9.77992C29.6803 9.78941 29.668 9.79686 29.6546 9.80188C29.5549 9.83856 29.4453 9.83856 29.3455 9.80188C29.2464 9.76577 29.1519 9.71809 29.0641 9.65983C29.0391 9.64669 29.0168 9.62907 28.9982 9.60785C28.9772 9.57645 28.9661 9.53944 28.9664 9.50165C28.9623 9.42055 28.9776 9.33899 28.9664 9.25834C28.9493 9.17537 28.9258 9.09387 28.896 9.01457C28.8523 8.85943 28.8588 8.69445 28.9144 8.54317C28.9345 8.47968 28.972 8.42314 29.0228 8.38007C29.1357 8.29403 29.3002 8.32898 29.431 8.27342C29.5292 8.23399 29.6524 8.20173 29.7425 8.29Z" fill="#FFD865"/>
<path d="M32.3635 0.999246C32.2963 1.0544 32.2438 1.12543 32.2109 1.20593C32.1779 1.28643 32.1656 1.37386 32.1749 1.46034C32.2363 2.03031 32.4209 3.32666 32.8811 4.0566C32.9083 4.09992 32.9367 4.14129 32.9662 4.18073H35.4536C35.4536 4.18073 35.9609 2.2929 35.9945 1.46213C35.9984 1.36621 35.9802 1.27068 35.9414 1.1829C35.9025 1.09511 35.844 1.01741 35.7704 0.955781C35.3976 0.646147 34.5225 -0.0300304 34.026 0.0147792H34.0161C34.0161 0.0147792 33.8252 -0.198963 32.3635 0.999246Z" fill="#D6DBE6"/>
<path opacity="0.05" d="M32.1747 1.46007C32.2361 2.03004 32.4207 3.32639 32.8809 4.05633C32.98 4.10114 33.0812 4.14102 33.1816 4.18046C33.8089 4.42556 34.4018 4.5703 34.3059 4.18046C34.284 4.1034 34.2518 4.02968 34.21 3.96134C33.6396 2.96881 33.9035 0.804503 34.0245 0.0180948H34.0146C34.0146 0.0180948 33.8255 -0.197887 32.3638 1.00032C32.2967 1.0553 32.2443 1.12609 32.2113 1.20633C32.1782 1.28658 32.1657 1.37377 32.1747 1.46007Z" fill="black"/>
<path d="M32.9492 4.11387C32.9492 4.22321 33.0424 4.32403 33.1997 4.40558C33.3074 4.45899 33.4209 4.4996 33.538 4.52657C33.7583 4.57791 33.984 4.60303 34.2102 4.6014C34.4821 4.60481 34.753 4.56704 35.0136 4.48938C35.1201 4.45752 35.2212 4.41011 35.3138 4.34868C35.4124 4.27922 35.4689 4.19946 35.4689 4.11432C35.4689 3.9902 35.3492 3.87728 35.1525 3.79124C35.1209 3.7772 35.0871 3.76406 35.0513 3.75181C34.7796 3.6651 34.4957 3.62303 34.2106 3.62724C33.8109 3.62724 33.4551 3.69938 33.2248 3.81186C33.1861 3.83057 33.1488 3.85213 33.1132 3.87638C33.0079 3.94628 32.9492 4.02739 32.9492 4.11387Z" fill="#D6DBE6"/>
<path opacity="0.1" d="M32.9258 4.11387C32.9258 4.22321 33.019 4.32403 33.1763 4.40558C33.2839 4.45899 33.3975 4.4996 33.5146 4.52657C33.7349 4.57791 33.9605 4.60303 34.1867 4.6014C34.4587 4.60481 34.7296 4.56704 34.9902 4.48938C35.0966 4.45752 35.1978 4.41011 35.2904 4.34868C35.389 4.27922 35.4455 4.19946 35.4455 4.11432C35.4455 3.9902 35.3258 3.87728 35.1291 3.79124C35.0974 3.7772 35.0637 3.76406 35.0278 3.75181C34.7562 3.6651 34.4723 3.62303 34.1872 3.62724C33.7875 3.62724 33.4317 3.69938 33.2014 3.81186C33.1626 3.83057 33.1253 3.85213 33.0898 3.87638C32.984 3.94628 32.9258 4.02739 32.9258 4.11387Z" fill="black"/>
<path d="M34.4496 4.24634C34.4871 4.17825 34.4991 4.09897 34.4832 4.02285C34.4673 3.94673 34.4247 3.87881 34.3631 3.8314C34.3631 3.8314 34.2771 3.72789 34.33 3.63379C34.33 3.63379 33.8904 3.92416 34.1144 4.25799L34.4496 4.24634Z" fill="#FFD865"/>
<path d="M34.3356 4.25694C34.3525 4.22628 34.3579 4.19057 34.3507 4.1563C34.3436 4.12202 34.3244 4.09144 34.2967 4.07009C34.2864 4.05782 34.2797 4.04305 34.2771 4.02729C34.2745 4.01153 34.2761 3.99537 34.2819 3.98047C34.2819 3.98047 34.0838 4.11131 34.1851 4.26143L34.3356 4.25694Z" fill="#FFD865"/>
<path opacity="0.1" d="M34.3356 4.25694C34.3525 4.22628 34.3579 4.19057 34.3507 4.1563C34.3436 4.12202 34.3244 4.09144 34.2967 4.07009C34.2864 4.05782 34.2797 4.04305 34.2771 4.02729C34.2745 4.01153 34.2761 3.99537 34.2819 3.98047C34.2819 3.98047 34.0838 4.11131 34.1851 4.26143L34.3356 4.25694Z" fill="black"/>
<path d="M33.1992 4.40475C33.3069 4.45816 33.4204 4.49876 33.5375 4.52573C33.896 4.44239 34.9266 4.17443 35.1507 3.79041C35.119 3.77637 35.0853 3.76322 35.0494 3.75098C34.9042 3.91901 34.3213 4.50109 33.1992 4.40475Z" fill="#565387"/>
<path d="M33.1094 3.87552C33.2438 4.11794 34.4985 4.38814 35.0107 4.48896C35.1171 4.45711 35.2183 4.4097 35.3109 4.34826C34.5813 4.33876 33.8646 4.15436 33.221 3.81055C33.1822 3.8294 33.1449 3.85112 33.1094 3.87552Z" fill="#565387"/>
<path opacity="0.35" d="M34.7067 0.980139C34.7807 1.05273 34.7601 1.17282 34.7515 1.27588C34.7372 1.46869 34.7865 1.66089 34.8918 1.82301C34.9572 1.92293 35.0473 2.0251 35.0312 2.1434C35.015 2.26169 34.8918 2.34101 34.8264 2.44541C34.761 2.54982 34.7556 2.68962 34.7748 2.81554C34.7941 2.94145 34.8331 3.06423 34.843 3.19104C34.8473 3.22005 34.8441 3.2497 34.8336 3.27708C34.8175 3.3037 34.7964 3.32686 34.7713 3.34519C34.7298 3.38226 34.6951 3.42623 34.6687 3.47514C34.6556 3.5051 34.6381 3.5329 34.6167 3.55759C34.5983 3.57405 34.577 3.58696 34.5539 3.59567C34.3859 3.66647 34.1923 3.65393 34.0189 3.59836C33.8476 3.53595 33.6842 3.45352 33.5323 3.35281C33.4892 3.33015 33.4506 3.29977 33.4184 3.26319C33.3821 3.20869 33.3631 3.14451 33.3638 3.07902C33.3566 2.93877 33.383 2.79762 33.3665 2.65781C33.3499 2.518 33.2849 2.3773 33.245 2.2366C33.1693 1.96824 33.1803 1.68282 33.2764 1.42106C33.311 1.3112 33.3759 1.21334 33.4637 1.13876C33.6591 0.989997 33.9432 1.04915 34.1695 0.954597C34.3388 0.882902 34.5517 0.827338 34.7067 0.980139Z" fill="#FFD865"/>
<path d="M19.7246 4.66192C19.6116 4.75456 19.5234 4.87389 19.468 5.00916C19.4126 5.14442 19.3918 5.29135 19.4074 5.43668C19.5104 6.39426 19.8201 8.57335 20.5935 9.79799C20.6395 9.87088 20.6872 9.94019 20.7365 10.0059H24.915C24.915 10.0059 25.7664 6.83608 25.8237 5.43936C25.8303 5.27786 25.7995 5.11701 25.7338 4.96935C25.668 4.82168 25.5691 4.69118 25.4447 4.58798C24.8173 4.06774 23.3484 2.93406 22.5141 3.00934H22.497C22.497 3.00934 22.1798 2.64952 19.7246 4.66192Z" fill="#D6DBE6"/>
<path opacity="0.05" d="M19.4078 5.43685C19.5108 6.39443 19.8205 8.57352 20.5939 9.79817C20.7602 9.86986 20.93 9.94021 21.0985 10.0061C22.1488 10.4179 23.1485 10.6608 22.9868 10.0061C22.9501 9.87672 22.896 9.75296 22.8259 9.6382C21.8674 7.97128 22.3106 4.33588 22.5122 3.01086H22.4952C22.4952 3.01086 22.1775 2.6479 19.7224 4.6603C19.6095 4.7534 19.5216 4.87315 19.4667 5.00874C19.4118 5.14433 19.3915 5.29147 19.4078 5.43685Z" fill="black"/>
<path d="M20.7109 9.89387C20.7109 10.0776 20.8673 10.2474 21.1313 10.3836C21.3121 10.4733 21.5028 10.5414 21.6994 10.5866C22.0684 10.6725 22.4462 10.7146 22.8251 10.7121C23.3382 10.7121 23.8082 10.6413 24.1743 10.5239C24.3532 10.4703 24.5233 10.3906 24.6789 10.2873C24.8447 10.1703 24.9392 10.0364 24.9392 9.89342C24.9392 9.6855 24.7385 9.49506 24.4078 9.35077C24.3543 9.32747 24.2975 9.30537 24.2375 9.28446C23.8633 9.15406 23.3682 9.0752 22.8251 9.0752C22.1529 9.0752 21.5556 9.19618 21.1671 9.38528C21.1019 9.41656 21.0392 9.45266 20.9794 9.49327C20.8086 9.61201 20.7109 9.74868 20.7109 9.89387Z" fill="#D6DBE6"/>
<path opacity="0.1" d="M20.668 9.89387C20.668 10.0776 20.8244 10.2474 21.0883 10.3836C21.2691 10.4733 21.4598 10.5414 21.6565 10.5866C22.0255 10.6725 22.4033 10.7146 22.7821 10.7121C23.2952 10.7121 23.7652 10.6413 24.1313 10.5239C24.3103 10.4703 24.4803 10.3906 24.6359 10.2873C24.8017 10.1703 24.8963 10.0364 24.8963 9.89342C24.8963 9.6855 24.6955 9.49506 24.3648 9.35077C24.3113 9.32747 24.2546 9.30537 24.1945 9.28446C23.8204 9.15406 23.3252 9.0752 22.7821 9.0752C22.11 9.0752 21.5126 9.19618 21.1241 9.38528C21.059 9.41656 20.9962 9.45266 20.9364 9.49327C20.7657 9.61201 20.668 9.74868 20.668 9.89387Z" fill="black"/>
<path d="M23.2327 10.1167C23.2327 10.1167 23.4594 9.74211 23.0875 9.41948C23.0875 9.41948 22.9432 9.24562 23.0315 9.08789C23.0315 9.08789 22.293 9.57542 22.6694 10.1364L23.2327 10.1167Z" fill="#FFD865"/>
<path d="M23.0478 10.1348C23.0762 10.0833 23.0852 10.0233 23.0732 9.96581C23.0612 9.90828 23.029 9.85694 22.9824 9.82109C22.9824 9.82109 22.9174 9.74267 22.9573 9.67188C22.9573 9.67188 22.6248 9.89144 22.7942 10.1437L23.0478 10.1348Z" fill="#FFD865"/>
<path opacity="0.1" d="M23.0478 10.1348C23.0762 10.0833 23.0852 10.0233 23.0732 9.96581C23.0612 9.90828 23.029 9.85694 22.9824 9.82109C22.9824 9.82109 22.9174 9.74267 22.9573 9.67188C22.9573 9.67188 22.6248 9.89144 22.7942 10.1437L23.0478 10.1348Z" fill="black"/>
<path d="M21.1367 10.3839C21.3175 10.4735 21.5082 10.5416 21.7049 10.5869C22.3076 10.4471 24.035 9.99673 24.4128 9.35147C24.3593 9.32817 24.3026 9.30607 24.2425 9.28516C24.0001 9.56835 23.0187 10.5456 21.1367 10.3839Z" fill="#565387"/>
<path d="M20.9805 9.49373C21.2045 9.90105 23.3146 10.3545 24.1741 10.5244C24.353 10.4708 24.523 10.3911 24.6787 10.2878C23.4532 10.2721 22.2494 9.96281 21.1682 9.38574C21.103 9.41703 21.0403 9.45313 20.9805 9.49373Z" fill="#565387"/>
<path opacity="0.35" d="M23.667 4.6295C23.7911 4.75093 23.7566 4.95347 23.7431 5.12644C23.719 5.45032 23.8018 5.77317 23.9788 6.04548C24.0886 6.21352 24.2405 6.38514 24.2127 6.58319C24.185 6.78125 23.9784 6.91523 23.8686 7.09089C23.7588 7.26654 23.7499 7.50134 23.7817 7.71284C23.8135 7.92435 23.8794 8.13047 23.8964 8.34332C23.9037 8.39214 23.8981 8.44203 23.8803 8.48805C23.854 8.53269 23.8191 8.57168 23.7776 8.60276C23.708 8.66501 23.6496 8.73884 23.6051 8.82099C23.5832 8.8713 23.5537 8.91799 23.5177 8.95945C23.4868 8.98717 23.4509 9.0089 23.412 9.02353C23.1301 9.14227 22.8048 9.12121 22.5131 9.02756C22.2214 8.93391 21.957 8.77394 21.6958 8.61486C21.6232 8.57655 21.5584 8.52521 21.5044 8.46341C21.4432 8.37198 21.4111 8.26422 21.4121 8.15422C21.4 7.91852 21.4448 7.68103 21.4166 7.44668C21.387 7.20246 21.2799 6.97528 21.2123 6.73868C21.0853 6.28804 21.1038 5.80881 21.2651 5.3693C21.3319 5.19006 21.4269 5.01083 21.5788 4.89567C21.9073 4.64563 22.3854 4.74645 22.7645 4.58603C23.0472 4.46639 23.4044 4.37229 23.667 4.6295Z" fill="#FFD865"/>
<path d="M20.5213 34.3849C20.8166 34.552 21.5461 34.4261 22 34.323C22.0437 34.3133 22.0843 34.293 22.1184 34.2639C22.1525 34.2349 22.1789 34.1979 22.1954 34.1563C22.212 34.1147 22.2181 34.0697 22.2132 34.0252C22.2084 33.9806 22.1927 33.938 22.1676 33.9009L22.0444 33.7185L21.9969 33.7114H22.039L22.5014 31.7277C22.7703 30.8315 22.6206 30.1468 22.5014 29.61C22.4445 29.3532 22.5785 28.7828 22.7335 28.2576C22.9899 28.3687 23.243 28.453 23.4559 28.4767C23.5876 28.4915 23.7328 28.5058 23.8847 28.517C24.0478 28.9459 24.1894 29.3236 24.2015 29.3716C24.3938 30.1405 25.3348 30.5048 25.3348 30.5048L27.7357 33.2342C27.7357 33.2342 27.5865 33.6218 27.2876 33.7414C27.2876 33.7414 26.542 33.9206 27.0187 34.0999C27.3373 34.2195 28.0417 33.9798 28.4746 33.8073C28.5158 33.7908 28.5524 33.7645 28.5811 33.7307C28.6099 33.6969 28.6299 33.6566 28.6396 33.6133C28.6493 33.5701 28.6482 33.5251 28.6366 33.4822C28.6249 33.4394 28.603 33.4001 28.5728 33.3677L28.4208 33.205H28.407L27.66 31.6085C27.5703 31.1604 26.7355 29.9084 26.226 29.6696C25.9303 29.5306 25.6758 28.8849 25.514 28.3701C25.7434 28.2911 25.9478 28.1527 26.1064 27.969C26.6732 27.283 26.913 27.6706 28.0153 27.4022C29.4152 27.0616 28.8775 26.1027 28.713 26.0987C27.966 25.7563 26.0244 23.9622 25.8245 23.7784C25.8617 23.7596 25.8823 23.748 25.8823 23.748L25.8107 23.7654L25.808 23.7628C25.7747 23.6293 25.731 23.4986 25.6771 23.372C25.7688 23.4512 25.8657 23.5243 25.967 23.5907C26.3143 23.8174 26.7503 23.9666 27.1447 23.8376L27.1352 23.8273C27.1581 23.8215 27.1801 23.8152 27.2042 23.808C26.972 23.5551 26.8295 23.2327 26.7987 22.8908C26.9908 22.8587 27.1764 22.7959 27.3485 22.7048C28.0319 22.3759 28.5239 21.6374 28.4979 20.8725C28.4881 20.5804 28.4128 20.2837 28.4804 19.9996C28.5436 19.7362 28.6073 19.63 28.6565 19.3638C28.8058 18.5572 28.955 18.7078 28.8206 18.1029C28.7515 17.7923 28.3845 17.6355 28.2205 17.363C27.9808 16.9647 27.9732 16.4754 27.9069 16.0147C27.8406 15.5541 27.6757 15.0527 27.2634 14.838C26.6755 14.5315 26.2673 13.7841 25.6803 13.8733C25.6489 13.8782 25.6175 13.8818 25.5866 13.8849C25.3643 13.7609 25.1106 13.7044 24.8566 13.7223C24.7065 13.7335 24.5587 13.7707 24.4085 13.7698C24.244 13.7686 24.0829 13.7221 23.943 13.6353C23.9358 13.6528 23.93 13.6707 23.9246 13.6887C23.9107 13.681 23.8968 13.6734 23.8834 13.6649C23.8446 13.7661 23.8293 13.8747 23.8386 13.9826C23.6066 14.0397 23.3979 14.1669 23.2408 14.3469C23.2072 14.1067 23.1875 13.9539 23.1875 13.9539L23.1279 11.001C23.1279 11.001 23.8139 9.83594 23.1579 9.83594C22.5019 9.83594 22.5306 10.88 22.5306 10.88L22.3513 13.1469C22.2321 13.9535 22.3513 14.4912 22.3513 14.4912C22.6601 15.3072 22.8384 16.5148 22.9105 17.0902C22.0058 17.7748 21.7535 18.3807 21.7634 18.8825C21.7522 19.3983 22.022 19.811 22.1725 20.0987C22.2093 20.1686 22.2263 20.3156 22.2276 20.5217C22.2164 22.2244 21.2629 27.4515 21.2629 27.4515L21.2727 27.4555L21.2629 27.5111L21.3126 27.5317C21.2557 27.7109 21.1939 27.8902 21.1284 28.0631C20.8004 28.928 21.1284 29.5248 21.1284 29.5248L21.4376 33.6298L21.4121 33.6258C21.4121 33.6258 21.154 34.0031 20.8408 34.0739C20.8421 34.073 20.0776 34.1339 20.5213 34.3849ZM24.8011 21.9798L24.7984 21.9771C24.5154 21.6604 24.3574 21.2515 24.3539 20.8268C24.3596 20.5229 24.4299 20.2237 24.56 19.949C24.6572 19.566 24.7255 19.1763 24.7643 18.7831C24.7805 18.999 24.7837 19.2156 24.7737 19.4319C24.7379 20.286 24.5802 21.158 24.8015 21.9798H24.8011Z" fill="url(#paint0_linear_1_1019)"/>
<path d="M24.4874 17.6497C24.7446 18.0848 24.698 18.8801 24.3409 20.3346C24.3409 20.3346 23.9327 21.4428 24.7491 22.3757C25.5656 23.3087 25.7403 24.1233 25.7403 24.1233C25.7403 24.1233 28.3035 25.7113 28.627 26.4265C28.1457 25.3623 29.7257 26.8858 27.8979 27.3303C26.8193 27.5929 26.5859 27.2138 26.032 27.8842C25.4782 28.5545 24.2244 28.4667 23.4371 28.3798C22.6498 28.2928 21.3086 27.3594 21.3086 27.3594C21.3086 27.3594 22.7954 21.091 22.4737 20.4785C22.1703 19.8991 21.0792 18.7981 23.2166 17.3723C23.6423 17.09 24.2248 17.2092 24.4874 17.6497Z" fill="#F0898B"/>
<path d="M24.4874 17.6497C24.7446 18.0848 24.698 18.8801 24.3409 20.3346C24.3409 20.3346 23.9327 21.4428 24.7491 22.3757C25.5656 23.3087 25.7403 24.1233 25.7403 24.1233C25.7403 24.1233 28.32 25.7042 28.627 26.4265C28.1749 25.3623 29.7257 26.8858 27.8979 27.3303C26.8193 27.5929 26.5859 27.2138 26.032 27.8842C25.4782 28.5545 24.2244 28.4667 23.4371 28.3798C22.6498 28.2928 21.3086 27.3594 21.3086 27.3594C21.3086 27.3594 22.7954 21.091 22.4737 20.4785C22.1703 19.8991 21.0792 18.7981 23.2166 17.3723C23.6423 17.09 24.2248 17.2092 24.4874 17.6497Z" fill="#FFDF9C"/>
<path opacity="0.03" d="M24.4874 17.6497C24.7446 18.0848 24.698 18.8801 24.3409 20.3346C24.3409 20.3346 23.9327 21.4428 24.7491 22.3757C25.5656 23.3087 25.7403 24.1233 25.7403 24.1233C25.7403 24.1233 28.32 25.7042 28.627 26.4265C28.1749 25.3623 29.7257 26.8858 27.8979 27.3303C26.8193 27.5929 26.5859 27.2138 26.032 27.8842C25.4782 28.5545 24.2244 28.4667 23.4371 28.3798C22.6498 28.2928 21.3086 27.3594 21.3086 27.3594C21.3086 27.3594 22.7954 21.091 22.4737 20.4785C22.1703 19.8991 21.0792 18.7981 23.2166 17.3723C23.6423 17.09 24.2248 17.2092 24.4874 17.6497Z" fill="#F1A5C2"/>
<path d="M25.278 27.6234C25.278 27.6234 25.657 29.3145 26.1526 29.5475C26.6482 29.7805 27.4647 31.0051 27.5521 31.4425L28.2955 33.0323H27.6233L25.2762 30.3644C25.2762 30.3644 24.3562 30.0059 24.168 29.2562C24.1389 29.1397 23.3516 27.0986 23.3516 27.0986L25.278 27.6234Z" fill="#FEC2BE"/>
<path d="M23.0863 27.0984C23.0863 27.0984 22.3863 28.9643 22.5037 29.4895C22.6211 30.0146 22.7663 30.685 22.5037 31.5597L22.0512 33.4981L21.4686 33.469L21.1621 29.4025C21.1621 29.4025 20.8413 28.82 21.1621 27.974C21.483 27.128 21.7142 26.0781 21.7142 26.0781L23.0863 27.0984Z" fill="#FEC2BE"/>
<path d="M22.9429 17.5649C22.9429 17.5649 22.7681 15.7864 22.3604 14.7074C22.3604 14.7074 22.2439 14.1826 22.3604 13.3953L22.5351 11.1795C22.5351 11.1795 22.506 10.1592 23.1472 10.1592C23.7885 10.1592 23.1181 11.2964 23.1181 11.2964L23.1764 14.1831C23.1764 14.1831 23.5555 17.128 23.8176 17.4488L22.9429 17.5649Z" fill="#FEC2BE"/>
<path opacity="0.05" d="M22.9429 17.5649C22.9429 17.5649 22.7681 15.7864 22.3604 14.7074C22.3604 14.7074 22.2439 14.1826 22.3604 13.3953L22.5351 11.1795C22.5351 11.1795 22.506 10.1592 23.1472 10.1592C23.7885 10.1592 23.1181 11.2964 23.1181 11.2964L23.1764 14.1831C23.1764 14.1831 23.5555 17.128 23.8176 17.4488L22.9429 17.5649Z" fill="black"/>
<path d="M23.0889 15.4668C23.0889 15.4668 23.2054 16.8662 22.8555 17.3327C22.8555 17.3327 23.6719 16.8953 24.3714 17.2744C24.3714 17.2744 23.934 16.0789 24.0797 15.5542L23.0889 15.4668Z" fill="#FEC2BE"/>
<path d="M24.4896 17.3C24.7468 17.7351 24.8754 18.5305 24.5183 19.985C24.5183 19.985 23.9357 21.0932 24.7517 22.0261C25.5677 22.959 25.7429 23.7737 25.7429 23.7737C25.7429 23.7737 27.9005 25.7856 28.6296 26.0769C28.6296 26.0769 28.9796 26.7181 27.9005 26.9807C26.8215 27.2433 26.5885 26.8642 26.0347 27.5346C25.4808 28.2049 24.227 28.1171 23.4397 28.0301C22.6524 27.9432 21.2969 27.3741 21.2969 27.3741C21.2969 27.3741 22.5068 20.7423 22.1864 20.1289C21.883 19.5495 21.0836 18.4485 23.2206 17.0227C23.6445 16.7404 24.227 16.8596 24.4896 17.3Z" fill="#FFDF9C"/>
<path d="M23.6123 18.9931C24.1597 18.9931 24.6035 18.5494 24.6035 18.0019C24.6035 17.4545 24.1597 17.0107 23.6123 17.0107C23.0649 17.0107 22.6211 17.4545 22.6211 18.0019C22.6211 18.5494 23.0649 18.9931 23.6123 18.9931Z" fill="#FEC2BE"/>
<path opacity="0.1" d="M23.9636 18.4096L24.1675 21.471L23.4953 24.7367C23.4953 24.7367 24.1074 26.8943 23.4953 26.69C22.8832 26.4856 22.8541 24.7071 22.8541 24.7071L23.2623 21.2958C23.2623 21.2958 22.7667 18.73 22.8541 18.2039C22.9415 17.6779 23.9636 18.4096 23.9636 18.4096Z" fill="black"/>
<path d="M23.9636 18.353L24.1675 21.4144L23.4953 24.6801C23.4953 24.6801 24.1074 26.8377 23.4953 26.6333C22.8832 26.429 22.8541 24.6505 22.8541 24.6505L23.2623 21.2391C23.2623 21.2391 22.7667 18.6734 22.8541 18.1473C22.9415 17.6212 23.9636 18.353 23.9636 18.353Z" fill="#FEC2BE"/>
<path opacity="0.03" d="M24.094 16.4123C23.6813 16.4123 23.3058 16.2944 23.1082 15.9642C23.1055 15.7065 23.0898 15.5215 23.0898 15.5215L24.081 15.6111C24.0183 15.8352 24.0528 16.0287 24.1259 16.3545C24.1048 16.3549 24.1124 16.4123 24.094 16.4123Z" fill="black"/>
<path d="M24.0826 16.4572C24.7107 16.4572 25.2199 15.948 25.2199 15.3199C25.2199 14.6918 24.7107 14.1826 24.0826 14.1826C23.4545 14.1826 22.9453 14.6918 22.9453 15.3199C22.9453 15.948 23.4545 16.4572 24.0826 16.4572Z" fill="#FEC2BE"/>
<path opacity="0.03" d="M22.8396 19.7061C22.8396 19.7061 22.75 20.1434 22.1836 20.1873L22.8396 19.7061Z" fill="black"/>
<path opacity="0.03" d="M25.861 27.5358C26.4148 26.8636 26.6483 27.244 27.7269 26.9819C28.8054 26.7198 28.4559 26.0781 28.4559 26.0781C27.7269 25.7864 25.5693 23.7749 25.5693 23.7749C25.5693 23.7749 25.3945 22.9584 24.5781 22.0273C23.7616 21.0962 24.3446 19.9862 24.3446 19.9862C24.7031 18.5322 24.5736 17.7363 24.3159 17.3012C24.245 17.182 24.1469 17.0812 24.0295 17.0073C23.9121 16.9334 23.7788 16.8884 23.6406 16.876C23.8083 16.8583 23.9776 16.8889 24.1285 16.9642C24.2793 17.0396 24.4055 17.1565 24.492 17.3012C24.7492 17.7363 24.8778 18.5317 24.5207 19.9862C24.5207 19.9862 23.9382 21.0944 24.7542 22.0273C25.5701 22.9602 25.7454 23.7749 25.7454 23.7749C25.7454 23.7749 27.903 25.7868 28.632 26.0781C28.632 26.0781 28.982 26.7193 27.903 26.9819C26.8239 27.2445 26.5909 26.8654 26.0371 27.5358C25.6539 27.9995 24.9365 28.1008 24.2698 28.09C24.8828 28.0802 25.5114 27.9592 25.861 27.5358Z" fill="#F1A5C2"/>
<path opacity="0.1" d="M23.6667 16.6386C23.7034 16.557 23.7818 16.5041 23.841 16.4365C24.0332 16.2183 24.0001 15.8912 24.0113 15.6003C24.0226 15.3226 24.0847 15.0492 24.1945 14.7938C24.1257 14.7597 24.0632 14.7142 24.0095 14.6593C23.9163 14.5601 23.8529 14.4367 23.8266 14.3032C23.8002 14.1697 23.8119 14.0315 23.8603 13.9043C23.9972 13.988 24.1545 14.0325 24.3151 14.0329C24.4621 14.0329 24.6068 13.9975 24.7538 13.9881C25.0021 13.9706 25.2502 14.0259 25.4676 14.1472C25.4981 14.144 25.5285 14.1404 25.5572 14.1355C26.1312 14.0486 26.53 14.7794 27.1045 15.0788C27.5078 15.2889 27.6705 15.7791 27.7319 16.229C27.7932 16.6789 27.8027 17.1575 28.0366 17.5469C28.197 17.813 28.5559 17.9667 28.6231 18.2701C28.7544 18.8616 28.6088 18.7155 28.4632 19.5028C28.4148 19.7631 28.3525 19.8671 28.2911 20.1243C28.2248 20.4021 28.2983 20.6921 28.3081 20.9757C28.3399 21.9131 27.5759 22.8106 26.6452 22.9285C26.6727 23.271 26.8147 23.5943 27.0485 23.8462C26.6631 23.9726 26.237 23.8265 25.8973 23.6047C25.3467 23.2418 24.9444 22.6937 24.7632 22.0596C24.5342 21.2468 24.6919 20.3829 24.7282 19.5391C24.7645 18.6953 24.6314 17.757 23.9898 17.209C23.8087 17.0549 23.5703 16.8532 23.6667 16.6386Z" fill="black"/>
<path d="M23.7253 16.6093C23.762 16.5277 23.8405 16.4749 23.8996 16.4072C24.0918 16.189 24.0587 15.8619 24.0699 15.571C24.0813 15.2933 24.1434 15.0199 24.2532 14.7645C24.1844 14.7304 24.1218 14.6849 24.0681 14.63C23.9749 14.5308 23.9116 14.4074 23.8852 14.2739C23.8588 14.1404 23.8705 14.0022 23.9189 13.875C24.0556 13.9599 24.2132 14.0055 24.3741 14.0067C24.5211 14.0067 24.6659 13.9713 24.8128 13.9619C25.0604 13.9438 25.308 13.998 25.5253 14.1179C25.5558 14.1147 25.5863 14.1111 25.6149 14.1062C26.189 14.0193 26.5878 14.7501 27.1622 15.0495C27.5655 15.2596 27.7282 15.7498 27.7896 16.1997C27.851 16.6496 27.8604 17.1282 28.0943 17.5176C28.2547 17.7837 28.6136 17.9374 28.6809 18.2408C28.8121 18.8323 28.6665 18.6862 28.5209 19.4735C28.4725 19.7339 28.4102 19.8378 28.3488 20.095C28.2825 20.3728 28.356 20.6628 28.3658 20.9464C28.3977 21.8838 27.6336 22.7814 26.7029 22.8992C26.7292 23.2408 26.8695 23.5637 27.1013 23.816C26.7159 23.9424 26.2898 23.7963 25.9501 23.5745C25.3986 23.2116 24.9955 22.6629 24.8142 22.0281C24.5852 21.2153 24.7429 20.3513 24.7792 19.5076C24.8155 18.6638 24.6824 17.7255 24.0408 17.1775C23.8673 17.0256 23.629 16.8239 23.7253 16.6093Z" fill="#AF637C"/>
<path d="M27.6175 33.033C27.6175 33.033 27.4719 33.4121 27.1802 33.5286C27.1802 33.5286 26.4511 33.7034 26.9176 33.8786C27.2313 33.9955 27.9173 33.7612 28.3408 33.5927C28.3807 33.5762 28.4161 33.5503 28.4439 33.5173C28.4717 33.4842 28.4911 33.4449 28.5005 33.4028C28.5099 33.3606 28.509 33.3168 28.4979 33.2751C28.4868 33.2333 28.4658 33.1949 28.4367 33.163L28.2884 33.0039L27.6175 33.033Z" fill="#4C4981"/>
<path d="M21.4449 33.4102C21.4449 33.4102 21.1926 33.7789 20.8865 33.8488C20.8865 33.8488 20.1391 33.9084 20.5729 34.1535C20.8614 34.3167 21.5748 34.1939 22.0193 34.0931C22.062 34.0834 22.1017 34.0635 22.1349 34.0351C22.1681 34.0066 22.1939 33.9705 22.21 33.9299C22.2261 33.8892 22.2321 33.8452 22.2274 33.8018C22.2226 33.7583 22.2074 33.7166 22.1829 33.6804L22.0624 33.5011L21.4449 33.4102Z" fill="#4C4981"/>
<path opacity="0.03" d="M25.8153 23.7607C25.8153 23.7607 25.1431 24.1398 24.3867 24.1107L25.8153 23.7607Z" fill="black"/>
<path d="M29.4713 34.4934C29.3669 34.3962 29.2688 34.2814 29.2383 34.1421C29.2078 34.0027 29.2674 33.8351 29.4009 33.7836C29.5502 33.7262 29.7101 33.8284 29.8311 33.9346C29.9521 34.0408 30.091 34.1587 30.2492 34.1363C30.1677 34.0624 30.1068 33.9686 30.0723 33.8642C30.0378 33.7597 30.031 33.6482 30.0525 33.5403C30.0594 33.4958 30.0783 33.4539 30.1071 33.4193C30.19 33.3297 30.3406 33.3687 30.4396 33.4386C30.7533 33.6626 30.8429 34.0897 30.8452 34.4759C30.877 34.3366 30.8501 34.1914 30.851 34.0484C30.8519 33.9055 30.8909 33.7473 31.0114 33.6702C31.0872 33.6297 31.1724 33.61 31.2583 33.6133C31.4004 33.6079 31.5585 33.6223 31.6553 33.7262C31.7759 33.8553 31.745 34.0717 31.6397 34.2138C31.5344 34.3558 31.3753 34.445 31.2287 34.5431C31.1111 34.6132 31.0108 34.709 30.9352 34.8232C30.9263 34.8391 30.9189 34.856 30.9133 34.8734H30.0216C29.8218 34.7721 29.6367 34.6443 29.4713 34.4934Z" fill="#6C63FF"/>
<path d="M37.6323 27.461C37.6323 27.461 40.9631 29.8856 34.2017 32.5894C34.2017 32.5894 33.0039 29.8157 34.7694 27.7917C35.1123 27.397 35.5879 27.1419 36.1063 27.0745C36.6247 27.0071 37.1498 27.1322 37.5822 27.426L37.6323 27.461Z" fill="#6C63FF"/>
<path d="M37.5931 27.4111C37.5931 27.4111 34.3861 29.4518 34.1992 32.5875" stroke="#535461" stroke-miterlimit="10"/>
<path d="M34.1318 32.2267C34.1318 32.2267 35.2373 28.4734 33.9244 25.7109C33.3732 24.5517 33.1904 23.25 33.4449 21.9917C33.5666 21.3943 33.7428 20.8093 33.9714 20.2441" stroke="#535461" stroke-width="2" stroke-miterlimit="10"/>
<path d="M33.1562 18.5002C33.1562 18.9604 33.9893 20.2926 33.9893 20.2926C33.9893 20.2926 34.8223 18.9586 34.8223 18.5002C34.8172 18.2827 34.7273 18.0758 34.5717 17.9237C34.416 17.7717 34.2071 17.6865 33.9895 17.6865C33.7719 17.6865 33.563 17.7717 33.4073 17.9237C33.2517 18.0758 33.1617 18.2827 33.1567 18.5002H33.1562Z" fill="#6C63FF"/>
<path d="M31.7789 21.0487C32.0289 21.435 33.453 22.1018 33.453 22.1018C33.453 22.1018 33.427 20.5294 33.1769 20.1431C33.0543 19.9638 32.8664 19.8394 32.6534 19.7966C32.4403 19.7538 32.219 19.7959 32.0365 19.914C31.8541 20.0321 31.7251 20.2168 31.677 20.4287C31.6288 20.6406 31.6654 20.863 31.7789 21.0483V21.0487Z" fill="#6C63FF"/>
<path d="M31.8381 25.4022C32.249 25.6092 33.8147 25.4662 33.8147 25.4662C33.8147 25.4662 32.9987 24.122 32.5878 23.9149C32.3912 23.8206 32.1654 23.8072 31.959 23.8775C31.7526 23.9478 31.582 24.0962 31.4838 24.2909C31.3856 24.4856 31.3676 24.711 31.4338 24.9188C31.5 25.1266 31.645 25.3001 31.8377 25.4022H31.8381Z" fill="#6C63FF"/>
<path d="M32.6281 28.6863C32.9978 28.9597 34.5657 29.0833 34.5657 29.0833C34.5657 29.0833 33.9886 27.6208 33.6189 27.347C33.531 27.2809 33.4309 27.2328 33.3244 27.2056C33.2179 27.1784 33.107 27.1725 32.9982 27.1884C32.8894 27.2042 32.7848 27.2414 32.6905 27.2979C32.5961 27.3543 32.5139 27.4289 32.4485 27.5173C32.3831 27.6057 32.3358 27.7062 32.3095 27.8129C32.2831 27.9197 32.2781 28.0306 32.2948 28.1392C32.3115 28.2479 32.3496 28.3522 32.4068 28.4461C32.464 28.54 32.5392 28.6217 32.6281 28.6863Z" fill="#6C63FF"/>
<path d="M35.1993 22.1904C34.8695 22.5108 33.332 22.8428 33.332 22.8428C33.332 22.8428 33.7084 21.3162 34.0382 20.9953C34.1167 20.9191 34.2094 20.8591 34.3111 20.8187C34.4128 20.7783 34.5214 20.7583 34.6308 20.7599C34.7402 20.7614 34.8482 20.7845 34.9487 20.8279C35.0491 20.8712 35.1401 20.9339 35.2163 21.0123C35.2925 21.0908 35.3526 21.1835 35.393 21.2852C35.4334 21.3869 35.4533 21.4955 35.4518 21.6049C35.4502 21.7143 35.4271 21.8223 35.3837 21.9228C35.3404 22.0232 35.2777 22.1142 35.1993 22.1904Z" fill="#6C63FF"/>
<path d="M36.0781 26.0422C35.6672 26.2492 34.1016 26.1062 34.1016 26.1062C34.1016 26.1062 34.9176 24.7619 35.3285 24.5549C35.4264 24.5024 35.5339 24.47 35.6446 24.4597C35.7553 24.4493 35.8669 24.4612 35.9729 24.4947C36.0789 24.5282 36.1772 24.5825 36.2619 24.6546C36.3465 24.7266 36.4159 24.8148 36.466 24.9141C36.516 25.0134 36.5457 25.1217 36.5532 25.2326C36.5607 25.3435 36.546 25.4548 36.5099 25.5599C36.4737 25.665 36.4169 25.7619 36.3428 25.8447C36.2686 25.9275 36.1786 25.9946 36.0781 26.0422Z" fill="#6C63FF"/>
<path d="M36.4102 29.904C36.0406 30.1773 34.4727 30.301 34.4727 30.301C34.4727 30.301 35.0498 28.8384 35.4195 28.5646C35.5972 28.4354 35.8188 28.3816 36.0361 28.4149C36.2533 28.4483 36.4485 28.5662 36.5792 28.7429C36.7099 28.9196 36.7655 29.1408 36.7339 29.3583C36.7022 29.5757 36.5859 29.7719 36.4102 29.904Z" fill="#6C63FF"/>
<path opacity="0.25" d="M33.1562 18.5002C33.1562 18.9604 33.9893 20.2926 33.9893 20.2926C33.9893 20.2926 34.8223 18.9586 34.8223 18.5002C34.8172 18.2827 34.7273 18.0758 34.5717 17.9237C34.416 17.7717 34.2071 17.6865 33.9895 17.6865C33.7719 17.6865 33.563 17.7717 33.4073 17.9237C33.2517 18.0758 33.1617 18.2827 33.1567 18.5002H33.1562Z" fill="black"/>
<path opacity="0.25" d="M31.7789 21.0487C32.0289 21.435 33.453 22.1018 33.453 22.1018C33.453 22.1018 33.427 20.5294 33.1769 20.1431C33.0543 19.9638 32.8664 19.8394 32.6534 19.7966C32.4403 19.7538 32.219 19.7959 32.0365 19.914C31.8541 20.0321 31.7251 20.2168 31.677 20.4287C31.6288 20.6406 31.6654 20.863 31.7789 21.0483V21.0487Z" fill="black"/>
<path opacity="0.25" d="M31.8381 25.4022C32.249 25.6092 33.8147 25.4662 33.8147 25.4662C33.8147 25.4662 32.9987 24.122 32.5878 23.9149C32.3912 23.8206 32.1654 23.8072 31.959 23.8775C31.7526 23.9478 31.582 24.0962 31.4838 24.2909C31.3856 24.4856 31.3676 24.711 31.4338 24.9188C31.5 25.1266 31.645 25.3001 31.8377 25.4022H31.8381Z" fill="black"/>
<path opacity="0.25" d="M32.6281 28.6863C32.9978 28.9597 34.5657 29.0833 34.5657 29.0833C34.5657 29.0833 33.9886 27.6208 33.6189 27.347C33.531 27.2809 33.4309 27.2328 33.3244 27.2056C33.2179 27.1784 33.107 27.1725 32.9982 27.1884C32.8894 27.2042 32.7848 27.2414 32.6905 27.2979C32.5961 27.3543 32.5139 27.4289 32.4485 27.5173C32.3831 27.6057 32.3358 27.7062 32.3095 27.8129C32.2831 27.9197 32.2781 28.0306 32.2948 28.1392C32.3115 28.2479 32.3496 28.3522 32.4068 28.4461C32.464 28.54 32.5392 28.6217 32.6281 28.6863Z" fill="black"/>
<path opacity="0.25" d="M35.1993 22.1904C34.8695 22.5108 33.332 22.8428 33.332 22.8428C33.332 22.8428 33.7084 21.3162 34.0382 20.9953C34.1167 20.9191 34.2094 20.8591 34.3111 20.8187C34.4128 20.7783 34.5214 20.7583 34.6308 20.7599C34.7402 20.7614 34.8482 20.7845 34.9487 20.8279C35.0491 20.8712 35.1401 20.9339 35.2163 21.0123C35.2925 21.0908 35.3526 21.1835 35.393 21.2852C35.4334 21.3869 35.4533 21.4955 35.4518 21.6049C35.4502 21.7143 35.4271 21.8223 35.3837 21.9228C35.3404 22.0232 35.2777 22.1142 35.1993 22.1904Z" fill="black"/>
<path opacity="0.25" d="M36.0781 26.0422C35.6672 26.2492 34.1016 26.1062 34.1016 26.1062C34.1016 26.1062 34.9176 24.7619 35.3285 24.5549C35.4264 24.5024 35.5339 24.47 35.6446 24.4597C35.7553 24.4493 35.8669 24.4612 35.9729 24.4947C36.0789 24.5282 36.1772 24.5825 36.2619 24.6546C36.3465 24.7266 36.4159 24.8148 36.466 24.9141C36.516 25.0134 36.5457 25.1217 36.5532 25.2326C36.5607 25.3435 36.546 25.4548 36.5099 25.5599C36.4737 25.665 36.4169 25.7619 36.3428 25.8447C36.2686 25.9275 36.1786 25.9946 36.0781 26.0422Z" fill="black"/>
<path opacity="0.25" d="M36.4102 29.904C36.0406 30.1773 34.4727 30.301 34.4727 30.301C34.4727 30.301 35.0498 28.8384 35.4195 28.5646C35.5972 28.4354 35.8188 28.3816 36.0361 28.4149C36.2533 28.4483 36.4485 28.5662 36.5792 28.7429C36.7099 28.9196 36.7655 29.1408 36.7339 29.3583C36.7022 29.5757 36.5859 29.7719 36.4102 29.904Z" fill="black"/>
<defs>
<linearGradient id="paint0_linear_1_1019" x1="24.6702" y1="34.4664" x2="24.6702" y2="9.83728" gradientUnits="userSpaceOnUse">
<stop stop-color="#808080" stop-opacity="0.25"/>
<stop offset="0.54" stop-color="#808080" stop-opacity="0.12"/>
<stop offset="1" stop-color="#808080" stop-opacity="0.1"/>
</linearGradient>
</defs>
</svg>
